<?xml version="1.0" encoding="utf-8"?>
<!-- Generator: Adobe Illustrator 27.1.1, SVG Export Plug-In . SVG Version: 6.00 Build 0)  -->
<svg version="1.1" id="Livello_1" xmlns="http://www.w3.org/2000/svg" xmlns:xlink="http://www.w3.org/1999/xlink" x="0px" y="0px"
	 viewBox="0 0 22.68 22.68" style="enable-background:new 0 0 22.68 22.68;" xml:space="preserve">
<g>
	<path d="M11.4,2.6c0.04,0,0.08,0,0.11,0c0.06,0.01,0.13,0.04,0.19,0.04c1.01,0.08,1.73,0.59,2.22,1.45
		c0.38,0.67,0.51,1.41,0.51,2.18c0,0.32,0,0.64,0,1c0.13,0,0.24,0,0.34,0c0.72,0,1.43,0,2.15,0c0.5,0,0.57,0.05,0.64,0.56
		c0.08,0.6,0.15,1.19,0.22,1.79c0.26,2.09,0.52,4.18,0.78,6.27c0.09,0.71,0.19,1.41,0.29,2.12c0,0.1,0,0.19,0,0.29
		c-0.02,0.04-0.04,0.09-0.05,0.13c-0.19,0.89-0.95,1.53-1.85,1.53c-3.74,0-7.48,0.01-11.22,0c-1.14,0-1.96-0.98-1.8-2.1
		c0.09-0.68,0.17-1.36,0.26-2.04c0.33-2.69,0.66-5.38,0.99-8.06c0.05-0.37,0.17-0.48,0.54-0.48c0.66,0,1.32,0,1.97,0
		c0.25,0,0.51,0,0.79,0c0-0.26-0.01-0.49,0-0.72C8.51,6.08,8.5,5.59,8.6,5.13c0.27-1.25,0.95-2.15,2.26-2.44
		C11.04,2.65,11.22,2.63,11.4,2.6z M5.93,8.06C5.9,8.28,5.87,8.48,5.84,8.68c-0.26,2.05-0.52,4.11-0.78,6.16
		c-0.13,1.03-0.27,2.06-0.38,3.09c-0.08,0.77,0.39,1.3,1.13,1.3c3.7,0,7.4,0,11.1,0c0.74,0,1.22-0.56,1.13-1.3
		c-0.12-0.98-0.24-1.95-0.36-2.92c-0.27-2.24-0.55-4.49-0.82-6.73c-0.01-0.07-0.04-0.14-0.06-0.21C13.19,8.06,9.57,8.06,5.93,8.06z
		 M9.27,7.28c1.48,0,2.94,0,4.48,0c-0.06-0.71-0.07-1.41-0.19-2.09c-0.12-0.66-0.47-1.23-1.09-1.57c-1.14-0.62-2.46-0.08-2.96,1.19
		C9.2,5.61,9.26,6.44,9.27,7.28z"/>
</g>
</svg>
