<?xml version="1.0" encoding="utf-8"?>
<!-- Generator: Adobe Illustrator 27.1.1, SVG Export Plug-In . SVG Version: 6.00 Build 0)  -->
<svg version="1.1" id="Livello_1" xmlns="http://www.w3.org/2000/svg" xmlns:xlink="http://www.w3.org/1999/xlink" x="0px" y="0px"
	 viewBox="0 0 22.68 22.68" style="enable-background:new 0 0 22.68 22.68;" xml:space="preserve">
<path d="M13.95,13.51c0.05,0.04,0.11,0.07,0.16,0.11c1.51,1.51,3.02,3.02,4.53,4.53c0.04,0.04,0.09,0.08,0.12,0.13
	c0.11,0.14,0.09,0.34-0.03,0.46c-0.12,0.12-0.31,0.13-0.44,0.02c-0.05-0.04-0.09-0.08-0.13-0.12c-1.51-1.51-3.02-3.02-4.53-4.53
	c-0.05-0.05-0.08-0.11-0.11-0.16c-2.53,2.21-6.17,1.85-8.21-0.47c-2.04-2.32-1.94-5.71,0.21-7.91c2.09-2.14,5.54-2.3,7.83-0.39
	C15.76,7.19,16.22,10.92,13.95,13.51z M4.53,9.62c-0.01,2.82,2.27,5.11,5.1,5.13c2.81,0.01,5.12-2.28,5.13-5.1
	c0.01-2.82-2.27-5.11-5.1-5.12C6.82,4.51,4.54,6.78,4.53,9.62z"/>
</svg>
