<?xml version="1.0" encoding="utf-8"?>
<!-- Generator: Adobe Illustrator 27.1.1, SVG Export Plug-In . SVG Version: 6.00 Build 0)  -->
<svg version="1.1" id="Layer_1" xmlns="http://www.w3.org/2000/svg" xmlns:xlink="http://www.w3.org/1999/xlink" x="0px" y="0px"
	 viewBox="0 0 25 15.62" style="enable-background:new 0 0 25 15.62;" xml:space="preserve">
<style type="text/css">
	.st0{fill:#C7B299;}
	.st1{fill:#FFFFFF;}
	.st2{fill:#FFA536;}
</style>
<g>
	<path class="st0" d="M25,14.79c0,0.46-0.37,0.83-0.83,0.83H0.83C0.37,15.62,0,15.25,0,14.79V0.83C0,0.37,0.37,0,0.83,0h23.33
		C24.63,0,25,0.37,25,0.83V14.79z"/>
	<g>
		<polygon class="st1" points="11.5,10.16 10.28,10.16 11.05,5.47 12.27,5.47 		"/>
		<path class="st1" d="M9.26,5.47L8.09,8.7L7.95,8v0L7.54,5.89c0,0-0.05-0.42-0.58-0.42H5.04L5.02,5.55c0,0,0.59,0.12,1.28,0.54
			l1.06,4.08h1.27l1.94-4.69H9.26z"/>
		<path class="st1" d="M18.86,10.16h1.12l-0.98-4.69h-0.98c-0.45,0-0.56,0.35-0.56,0.35l-1.82,4.34h1.27l0.25-0.7h1.55L18.86,10.16z
			 M17.52,8.5l0.64-1.76l0.36,1.76H17.52z"/>
		<path class="st1" d="M15.73,6.6l0.17-1.01c0,0-0.54-0.2-1.1-0.2c-0.61,0-2.05,0.26-2.05,1.55c0,1.21,1.69,1.23,1.69,1.86
			c0,0.64-1.52,0.52-2.02,0.12l-0.18,1.05c0,0,0.55,0.27,1.38,0.27c0.83,0,2.09-0.43,2.09-1.61c0-1.22-1.7-1.33-1.7-1.86
			C14.02,6.24,15.21,6.31,15.73,6.6z"/>
	</g>
	<path class="st2" d="M7.95,8L7.54,5.89c0,0-0.05-0.42-0.58-0.42H5.04L5.02,5.55c0,0,0.92,0.19,1.81,0.91C7.68,7.14,7.95,8,7.95,8z"
		/>
</g>
</svg>
