<?xml version="1.0" encoding="utf-8"?>
<!-- Generator: Adobe Illustrator 27.1.1, SVG Export Plug-In . SVG Version: 6.00 Build 0)  -->
<svg version="1.1" id="Layer_1" xmlns="http://www.w3.org/2000/svg" xmlns:xlink="http://www.w3.org/1999/xlink" x="0px" y="0px"
	 viewBox="0 0 25 15.62" style="enable-background:new 0 0 25 15.62;" xml:space="preserve">
<style type="text/css">
	.st0{fill:#0C0C17;}
	.st1{fill:#C7B299;}
	.st2{fill:#FFFFFF;}
	.st3{fill:#0073A5;}
</style>
<g>
	<g>
		<path class="st0" d="M8.09,7.93V7.68L7.97,7.93H6.96L6.83,7.66v0.26h-1.9L4.7,7.4H4.32L4.08,7.93H3.09V6.32l0.72-1.64H5.2
			L5.4,5.15V4.69h1.69l0.37,0.78l0.36-0.78h5.35c0,0,0.28,0,0.46,0.13l0-0.13h1.35v0.18c0,0,0.24-0.18,0.6-0.18s2.38,0,2.38,0
			l0.21,0.47V4.68h1.52l0.28,0.47V4.68h1.46v3.25h-1.5l-0.35-0.57v0.56h-1.86l-0.26-0.58h-0.36l-0.25,0.58h-1.13
			c0,0-0.42-0.01-0.73-0.23c0,0.12,0,0.23,0,0.23h-2.24c0,0,0-0.65,0-0.76c0-0.11-0.08-0.1-0.08-0.1h-0.08v0.86H8.09z"/>
		<path class="st0" d="M6.97,8.63h2.94l0.43,0.48l0.43-0.48h2.26c0,0,0.21,0.01,0.41,0.11V8.63c0,0,1.76,0,2.02,0
			c0.26,0,0.47,0.13,0.47,0.13V8.63h2.59v0.12c0,0,0.18-0.12,0.43-0.12c0.25,0,1.69,0,1.69,0v0.12c0,0,0.21-0.12,0.44-0.12
			c0.23,0,1.33,0,1.33,0v3.06c0,0-0.17,0.2-0.53,0.2h-1.75v-0.1c0,0-0.17,0.1-0.42,0.1c-0.25,0-4.64,0-4.64,0s0-0.71,0-0.79
			c0-0.08-0.03-0.09-0.1-0.09h-0.06v0.88h-1.45v-0.88c0,0-0.16,0.09-0.43,0.09c-0.27,0-0.52,0-0.52,0v0.79h-1.79l-0.41-0.5
			l-0.43,0.5h-2.9V8.63z"/>
		<polygon class="st0" points="16.25,9.12 18.1,9.12 18.1,9.61 16.82,9.61 16.82,10.05 18.06,10.05 18.06,10.48 16.82,10.48 
			16.82,10.94 18.1,10.94 18.1,11.42 16.25,11.42 		"/>
		<path class="st0" d="M21.67,10.02c0.69,0.04,0.75,0.38,0.75,0.75c0,0.43-0.35,0.66-0.72,0.66h-1.19v-0.49h0.92
			c0.16,0,0.39,0,0.39-0.22c0-0.1-0.04-0.17-0.21-0.19c-0.07-0.01-0.35-0.03-0.39-0.03c-0.63-0.02-0.77-0.33-0.77-0.71
			c0-0.43,0.3-0.67,0.67-0.67h1.19v0.49h-0.87c-0.2,0-0.41-0.02-0.41,0.2c0,0.14,0.11,0.17,0.24,0.18
			C21.32,10,21.63,10.02,21.67,10.02z"/>
		<path class="st0" d="M19.54,10.02c0.69,0.04,0.75,0.38,0.75,0.75c0,0.43-0.35,0.66-0.72,0.66h-1.19v-0.49h0.92
			c0.16,0,0.39,0,0.39-0.22c0-0.1-0.04-0.17-0.21-0.19c-0.07-0.01-0.35-0.03-0.39-0.03c-0.63-0.02-0.77-0.33-0.77-0.71
			c0-0.43,0.3-0.67,0.67-0.67h1.19v0.49h-0.87c-0.2,0-0.41-0.02-0.41,0.2c0,0.14,0.11,0.17,0.24,0.18
			C19.19,10,19.5,10.02,19.54,10.02z"/>
		<path class="st0" d="M12.84,9.12h-1.98l-0.65,0.71L9.58,9.12H7.36v2.3h2.16l0.68-0.76l0.66,0.77h1.08v-0.78h0.76
			c0.29,0,0.83-0.01,0.83-0.82C13.52,9.25,13.12,9.12,12.84,9.12z M9.22,10.94h-1.3v-0.45h1.25v-0.44H7.91V9.61l1.37,0l0.55,0.63
			L9.22,10.94z M11.38,11.2l-0.81-0.96l0.81-0.9V11.2z M12.65,10.17h-0.7V9.62h0.71c0.24,0,0.31,0.15,0.31,0.26
			C12.96,10.04,12.88,10.17,12.65,10.17z"/>
		<path class="st0" d="M15.57,10.38c0.31-0.15,0.39-0.36,0.39-0.64c0-0.49-0.4-0.62-0.68-0.62h-1.47v2.3h0.57v-0.81h0.74
			c0.2,0,0.27,0.2,0.28,0.39l0.01,0.42h0.55l-0.02-0.47C15.94,10.58,15.84,10.41,15.57,10.38z M15.08,10.14h-0.7V9.62h0.71
			c0.24,0,0.31,0.15,0.31,0.26C15.4,10.04,15.31,10.14,15.08,10.14z"/>
		<rect x="14.04" y="5.15" class="st0" width="0.57" height="2.3"/>
		<polygon class="st0" points="9.41,5.15 11.26,5.15 11.26,5.64 9.98,5.64 9.98,6.08 11.23,6.08 11.23,6.51 9.98,6.51 9.98,6.97 
			11.26,6.97 11.26,7.45 9.41,7.45 		"/>
		<path class="st0" d="M13.35,6.4c0.31-0.15,0.39-0.36,0.39-0.64c0-0.49-0.4-0.62-0.68-0.62H11.6v2.3h0.57V6.64h0.74
			c0.2,0,0.27,0.19,0.28,0.39l0.02,0.42h0.55l-0.02-0.47C13.72,6.61,13.62,6.43,13.35,6.4z M12.87,6.16h-0.7V5.64h0.71
			c0.24,0,0.31,0.15,0.31,0.26C13.18,6.06,13.1,6.16,12.87,6.16z"/>
		<path class="st0" d="M8.11,5.15L7.42,6.69L6.73,5.15H5.84v2.22L4.85,5.15H4.11L3.1,7.45h0.6l0.22-0.51h1.13l0.22,0.51h1.14V5.74
			l0.76,1.71h0.51l0.77-1.68v1.68h0.57v-2.3H8.11z M4.13,6.44l0.34-0.8l0.35,0.8H4.13z"/>
		<path class="st0" d="M20.44,5.15v1.59l-0.95-1.59h-0.84v2.16l-0.96-2.16h-0.75l-0.78,1.78c0,0-0.33,0-0.36-0.01
			c-0.14-0.03-0.35-0.12-0.35-0.53V6.23c0-0.54,0.29-0.58,0.67-0.58h0.35v-0.5h-0.74c-0.26,0-0.82,0.2-0.83,1.14
			c-0.01,0.64,0.26,1.16,0.89,1.16h0.75l0.22-0.51h1.13l0.22,0.51h1.12V5.77l1.02,1.69H21v-2.3H20.44z M16.97,6.44l0.34-0.8
			l0.35,0.8H16.97z"/>
	</g>
	<path class="st1" d="M24.61,14.7c0,0.45-0.37,0.82-0.82,0.82H0.84c-0.45,0-0.82-0.37-0.82-0.82V0.97c0-0.45,0.37-0.82,0.82-0.82
		h22.95c0.45,0,0.82,0.37,0.82,0.82V14.7z"/>
	<g>
		<path class="st2" d="M7.65,7.48V7.24L7.53,7.48H6.51L6.38,7.22v0.26h-1.9L4.25,6.95H3.87L3.64,7.48H2.65V5.87l0.72-1.64h1.38
			L4.95,4.7V4.24h1.69l0.37,0.78l0.36-0.78h5.35c0,0,0.28,0,0.46,0.13l0-0.13h1.35v0.18c0,0,0.24-0.18,0.6-0.18s2.38,0,2.38,0
			l0.21,0.47V4.24h1.52l0.28,0.47V4.24h1.46v3.25h-1.5l-0.35-0.57v0.56h-1.86L17.01,6.9h-0.36L16.4,7.48h-1.13
			c0,0-0.42-0.01-0.73-0.23c0,0.12,0,0.23,0,0.23H12.3c0,0,0-0.65,0-0.76c0-0.11-0.08-0.1-0.08-0.1h-0.08v0.86H7.65z"/>
		<path class="st2" d="M6.53,8.18h2.94L9.9,8.67l0.43-0.48h2.26c0,0,0.21,0.01,0.41,0.11V8.18c0,0,1.76,0,2.02,0
			c0.26,0,0.47,0.13,0.47,0.13V8.18h2.59V8.3c0,0,0.18-0.12,0.43-0.12c0.25,0,1.69,0,1.69,0V8.3c0,0,0.21-0.12,0.44-0.12
			c0.23,0,1.33,0,1.33,0v3.06c0,0-0.17,0.2-0.53,0.2h-1.75v-0.1c0,0-0.17,0.1-0.42,0.1c-0.25,0-4.64,0-4.64,0s0-0.71,0-0.79
			c0-0.08-0.03-0.09-0.1-0.09h-0.06v0.88h-1.45v-0.88c0,0-0.16,0.09-0.43,0.09c-0.27,0-0.52,0-0.52,0v0.79h-1.79l-0.41-0.5
			l-0.43,0.5h-2.9V8.18z"/>
		<polygon class="st3" points="15.81,8.67 17.65,8.67 17.65,9.17 16.37,9.17 16.37,9.6 17.62,9.6 17.62,10.04 16.37,10.04 
			16.37,10.49 17.65,10.49 17.65,10.97 15.81,10.97 		"/>
		<path class="st3" d="M21.22,9.57c0.69,0.04,0.75,0.38,0.75,0.75c0,0.43-0.35,0.66-0.72,0.66h-1.19v-0.49h0.92
			c0.16,0,0.39,0,0.39-0.22c0-0.1-0.04-0.17-0.21-0.19c-0.07-0.01-0.35-0.03-0.39-0.03c-0.63-0.02-0.77-0.33-0.77-0.71
			c0-0.43,0.3-0.67,0.67-0.67h1.19v0.49H21c-0.2,0-0.41-0.02-0.41,0.2c0,0.14,0.11,0.17,0.24,0.18C20.87,9.55,21.18,9.57,21.22,9.57
			z"/>
		<path class="st3" d="M19.1,9.57c0.69,0.04,0.75,0.38,0.75,0.75c0,0.43-0.35,0.66-0.72,0.66h-1.19v-0.49h0.92
			c0.16,0,0.39,0,0.39-0.22c0-0.1-0.04-0.17-0.21-0.19c-0.07-0.01-0.35-0.03-0.39-0.03c-0.63-0.02-0.77-0.33-0.77-0.71
			c0-0.43,0.3-0.67,0.67-0.67h1.19v0.49h-0.87c-0.2,0-0.41-0.02-0.41,0.2c0,0.14,0.11,0.17,0.24,0.18
			C18.75,9.55,19.05,9.57,19.1,9.57z"/>
		<path class="st3" d="M12.4,8.68h-1.98L9.76,9.39L9.14,8.67H6.91v2.3h2.16l0.68-0.76l0.66,0.77h1.08V10.2h0.76
			c0.29,0,0.83-0.01,0.83-0.82C13.08,8.81,12.67,8.68,12.4,8.68z M8.77,10.49h-1.3v-0.45h1.25V9.6H7.47V9.17l1.37,0L9.39,9.8
			L8.77,10.49z M10.93,10.76L10.12,9.8l0.81-0.9V10.76z M12.2,9.72h-0.7V9.17h0.71c0.24,0,0.31,0.15,0.31,0.26
			C12.52,9.59,12.44,9.72,12.2,9.72z"/>
		<path class="st3" d="M15.12,9.93c0.31-0.15,0.39-0.36,0.39-0.64c0-0.49-0.4-0.62-0.68-0.62h-1.47v2.3h0.57v-0.81h0.74
			c0.2,0,0.27,0.2,0.28,0.39l0.01,0.42h0.55l-0.02-0.47C15.49,10.14,15.39,9.96,15.12,9.93z M14.64,9.69h-0.7V9.17h0.71
			c0.24,0,0.31,0.15,0.31,0.26C14.95,9.59,14.87,9.69,14.64,9.69z"/>
		<rect x="13.59" y="4.7" class="st3" width="0.57" height="2.3"/>
		<polygon class="st3" points="8.97,4.7 10.82,4.7 10.82,5.2 9.53,5.2 9.53,5.63 10.78,5.63 10.78,6.07 9.53,6.07 9.53,6.52 
			10.82,6.52 10.82,7 8.97,7 		"/>
		<path class="st3" d="M12.91,5.96C13.22,5.8,13.3,5.6,13.3,5.32c0-0.49-0.4-0.62-0.68-0.62h-1.47V7h0.57V6.19h0.74
			c0.2,0,0.27,0.19,0.28,0.39L12.75,7h0.55l-0.02-0.47C13.28,6.16,13.18,5.99,12.91,5.96z M12.42,5.72h-0.7V5.2h0.71
			c0.24,0,0.31,0.15,0.31,0.26C12.73,5.61,12.65,5.72,12.42,5.72z"/>
		<path class="st3" d="M7.67,4.7L6.97,6.25L6.28,4.7H5.39v2.22L4.41,4.7H3.66L2.65,7h0.6l0.22-0.51H4.6L4.82,7h1.14V5.3L6.71,7h0.51
			L8,5.32V7h0.57V4.7H7.67z M3.68,5.99l0.34-0.8l0.35,0.8H3.68z"/>
		<path class="st3" d="M19.99,4.7v1.59L19.04,4.7H18.2v2.16L17.24,4.7h-0.75l-0.78,1.78c0,0-0.33,0-0.36-0.01
			C15.22,6.45,15,6.35,15,5.95V5.78c0-0.54,0.29-0.58,0.67-0.58h0.35V4.7h-0.74c-0.26,0-0.82,0.2-0.83,1.14
			C14.43,6.48,14.71,7,15.34,7h0.75l0.22-0.51h1.13L17.65,7h1.12V5.32L19.79,7h0.77V4.7H19.99z M16.52,5.99l0.34-0.8l0.35,0.8H16.52
			z"/>
	</g>
</g>
</svg>
