<?xml version="1.0" encoding="utf-8"?>
<!-- Generator: Adobe Illustrator 27.1.1, SVG Export Plug-In . SVG Version: 6.00 Build 0)  -->
<svg version="1.1" id="Layer_1" xmlns="http://www.w3.org/2000/svg" xmlns:xlink="http://www.w3.org/1999/xlink" x="0px" y="0px"
	 viewBox="0 0 25 25" style="enable-background:new 0 0 25 25;" xml:space="preserve">
<style type="text/css">
	.st0{fill:#C7B299;}
</style>
<g>
	<g>
		<path class="st0" d="M12.52,0.61c6.57,0,11.87,5.31,11.87,11.88c0,6.23-4.78,11.35-10.86,11.84c-0.34,0.06-0.68,0.06-1.01,0.06
			c-0.89,0-1.75-0.09-2.58-0.28c-5.34-1.19-9.33-5.95-9.33-11.62C0.61,5.92,5.95,0.61,12.52,0.61L12.52,0.61z M12.52,0
			C5.62,0,0,5.61,0,12.49c0,5.8,4.13,10.94,9.8,12.22c0.86,0.19,1.77,0.28,2.71,0.28c0.37,0,0.75,0,1.12-0.06
			C19.98,24.43,25,18.96,25,12.49C25,5.61,19.4,0,12.52,0L12.52,0z"/>
	</g>
	<g>
		<path class="st0" d="M13.87,10c0.18-0.22,0.55-0.37,1.07-0.37c0.49,0,1.07,0.07,1.62,0.23l0.46-2.49
			c-0.95-0.33-1.93-0.43-2.94-0.43c-1.01,0-1.81,0.16-2.45,0.53c-0.65,0.35-1.07,0.76-1.32,1.35c-0.25,0.53-0.37,1.41-0.37,2.52
			v0.98H7.97v2.85h1.97v8.96c0.83,0.19,1.69,0.28,2.58,0.28c0.34,0,0.68,0,1.01-0.06v-9.18h2.61v-2.85h-2.61v-0.92
			C13.53,10.68,13.62,10.25,13.87,10z"/>
	</g>
</g>
</svg>
