<?xml version="1.0" encoding="utf-8"?>
<!-- Generator: Adobe Illustrator 27.1.1, SVG Export Plug-In . SVG Version: 6.00 Build 0)  -->
<svg version="1.1" id="Layer_1" xmlns="http://www.w3.org/2000/svg" xmlns:xlink="http://www.w3.org/1999/xlink" x="0px" y="0px"
	 viewBox="0 0 25 25" style="enable-background:new 0 0 25 25;" xml:space="preserve">
<style type="text/css">
	.st0{fill:#C7B299;}
	.st1{fill-rule:evenodd;clip-rule:evenodd;fill:#C7B299;}
</style>
<g>
	<path class="st0" d="M12.42,0.69c6.48,0,11.73,5.26,11.73,11.73c0,6.48-5.25,11.73-11.73,11.73C5.95,24.15,0.7,18.9,0.7,12.42
		C0.7,5.95,5.95,0.69,12.42,0.69L12.42,0.69z M12.42,0.09C5.62,0.09,0.1,5.62,0.1,12.42c0,6.8,5.53,12.33,12.33,12.33
		c6.8,0,12.33-5.53,12.33-12.33C24.75,5.62,19.22,0.09,12.42,0.09L12.42,0.09z"/>
</g>
<g>
	<path class="st1" d="M17.09,6.09c-3.1,0-6.22,0-9.32,0c-1.11,0-1.68,0.59-1.68,1.69c0,1.54,0,3.08,0,4.63c0,1.54,0,3.12,0,4.67
		c0,1.07,0.59,1.66,1.63,1.66c3.14,0,6.25,0,9.38,0c1.08,0,1.68-0.58,1.68-1.67c0-3.12,0-6.21,0-9.33
		C18.77,6.68,18.17,6.09,17.09,6.09z M16.06,7.53c1.26,0,1.26,0,1.26,1.26c0,1.22,0,1.22-1.24,1.22c-1.25,0-1.25,0-1.25-1.25
		C14.84,7.53,14.84,7.53,16.06,7.53z M12.43,9.96c1.32,0,2.46,1.14,2.44,2.46c-0.01,1.36-1.14,2.47-2.48,2.45
		c-1.33-0.02-2.46-1.15-2.43-2.47C9.99,11.07,11.11,9.96,12.43,9.96z M17.32,16.56c-0.01,0.59-0.16,0.75-0.75,0.75
		c-1.38,0-2.77,0-4.15,0c-1.37,0-2.75,0-4.14,0c-0.58,0-0.74-0.16-0.74-0.75c0-1.53,0.01-3.08-0.02-4.62c0-0.44,0.12-0.53,0.52-0.52
		c0.58,0.05,0.59,0.02,0.53,0.59c-0.22,1.95,1.13,3.86,3.06,4.23c1.99,0.38,3.98-0.81,4.53-2.72c0.16-0.6,0.21-1.24,0.09-1.82
		c-0.04-0.22,0.01-0.26,0.21-0.26c0.87-0.07,0.87-0.08,0.87,0.83C17.32,13.68,17.32,15.13,17.32,16.56z"/>
</g>
</svg>
