<?xml version="1.0" encoding="utf-8"?>
<!-- Generator: Adobe Illustrator 27.1.1, SVG Export Plug-In . SVG Version: 6.00 Build 0)  -->
<svg version="1.1" id="Layer_1" xmlns="http://www.w3.org/2000/svg" xmlns:xlink="http://www.w3.org/1999/xlink" x="0px" y="0px"
	 viewBox="0 0 25 15.62" style="enable-background:new 0 0 25 15.62;" xml:space="preserve">
<style type="text/css">
	.st0{fill:#C7B299;}
</style>
<g>
	<path class="st0" d="M25,14.8c0,0.46-0.37,0.83-0.83,0.83H0.81c-0.46,0-0.83-0.37-0.83-0.83V0.83C-0.02,0.37,0.35,0,0.81,0h23.35
		C24.63,0,25,0.37,25,0.83V14.8z"/>
	<g>
		<path d="M21.79,7.04c0,1.05,0,2.06,0,3.1c-0.34-0.03-0.67,0.11-1.02-0.13c-0.36,0.17-0.78,0.29-1.25,0.16
			c-0.91-0.25-1.43-1.15-1.16-2.06c0.26-0.87,1.21-1.37,2.08-1.09c0.19,0.06,0.33,0.15,0.57,0.03C21.22,6.96,21.52,7.04,21.79,7.04z
			 M20.02,7.79c-0.49,0-0.87,0.35-0.86,0.81c0.01,0.44,0.38,0.79,0.85,0.79c0.47,0,0.85-0.34,0.86-0.78
			C20.88,8.16,20.51,7.8,20.02,7.79z"/>
		<path d="M10.9,10.1c-0.87,0.29-1.67,0.14-2.16-0.49C8.27,8.99,8.27,8.17,8.76,7.56c0.5-0.63,1.3-0.77,2.17-0.37
			c0.16-0.18,0.4-0.2,0.96-0.11c0,1.01,0,2.02,0,3.09C11.55,10.14,11.23,10.12,10.9,10.1z M10.14,7.79
			C9.66,7.78,9.26,8.13,9.26,8.58c-0.01,0.43,0.37,0.8,0.83,0.81c0.49,0.01,0.87-0.34,0.88-0.79C10.97,8.15,10.62,7.8,10.14,7.79z"
			/>
		<path d="M14.74,7.09c0.65-0.14,0.85-0.09,0.93,0.23c0.46-0.41,0.98-0.47,1.53-0.25c0.41,0.16,0.7,0.47,0.72,0.9
			c0.04,0.71,0.01,1.43,0.01,2.17c-0.3,0-0.58,0-0.92,0c0-0.57,0-1.14,0-1.71c0-0.27-0.11-0.53-0.39-0.57
			c-0.24-0.03-0.55,0-0.72,0.13c-0.15,0.12-0.22,0.41-0.24,0.63c-0.03,0.5-0.01,1-0.01,1.51c-0.33,0-0.61,0-0.91,0
			C14.74,9.1,14.74,8.09,14.74,7.09z"/>
		<path d="M3.88,8.03c0.87-0.56,1.43-1.31,1.46-2.37c0.34,0,0.64,0,0.98,0c0.02,1.01-0.38,1.83-1.04,2.55
			c0.47,0.64,0.92,1.26,1.43,1.94c-0.43,0-0.8,0.01-1.16-0.01c-0.07,0-0.15-0.07-0.2-0.13C4.86,9.37,4.38,8.72,3.88,8.03z"/>
		<path d="M3.7,10.13c-0.33,0-0.64,0-0.98,0c0-1.49,0-2.97,0-4.47c0.32,0,0.63,0,0.98,0C3.7,7.14,3.7,8.63,3.7,10.13z"/>
		<path d="M7.98,5.66c0,1.5,0,2.97,0,4.47c-0.31,0-0.61,0-0.93,0c0-1.48,0-2.96,0-4.47C7.34,5.66,7.64,5.66,7.98,5.66z"/>
		<path d="M12.43,7.04c0.15,0,0.28,0,0.41,0c0.15,0,0.31,0,0.48,0c0.02,0.12,0.03,0.22,0.04,0.29c0.29-0.11,0.57-0.22,0.89-0.34
			c0,0.35,0,0.62,0,0.91c-0.11,0.03-0.23,0.06-0.35,0.11c-0.35,0.14-0.56,0.39-0.55,0.79c0,0.44,0,0.88,0,1.33
			c-0.32,0-0.61,0-0.92,0C12.43,9.12,12.43,8.1,12.43,7.04z"/>
		<path d="M23.39,9.63c0,0.31-0.28,0.59-0.6,0.58c-0.31-0.01-0.56-0.26-0.56-0.58c0-0.32,0.24-0.57,0.55-0.57
			C23.12,9.05,23.39,9.3,23.39,9.63z"/>
	</g>
</g>
</svg>
