<?xml version="1.0" encoding="utf-8"?>
<!-- Generator: Adobe Illustrator 27.1.1, SVG Export Plug-In . SVG Version: 6.00 Build 0)  -->
<svg version="1.1" id="Livello_1" xmlns="http://www.w3.org/2000/svg" xmlns:xlink="http://www.w3.org/1999/xlink" x="0px" y="0px"
	 viewBox="0 0 240.94 239.67" style="enable-background:new 0 0 240.94 239.67;" xml:space="preserve">
<style type="text/css">
	.st0{fill:#CBBBA0;}
</style>
<g>
	<path class="st0" d="M120.69,203.47c-5.55,6.77-10.77,14.27-17.13,20.63c-11.69,11.68-25.72,17.7-42.7,14.74
		c-10.46-1.82-19.87-6.03-28.12-12.59c-15.37-12.23-25.79-27.88-31.33-46.74c-0.43-1.46-0.55-3.01-0.92-5.16
		c5.62,0,10.88-0.14,16.12,0.15c0.81,0.04,1.79,1.93,2.22,3.13c3.72,10.22,8.55,19.74,16.38,27.51c6.75,6.7,14.82,10.84,24.14,12.49
		c5.63,1,10.53-1.14,14.92-4.34c10.77-7.82,15.9-19.2,19.26-31.57c3.29-12.12,4.2-24.52,3.92-37.02
		c-0.38-17.03-1.68-33.99-7.18-50.25c-1.85-5.47-4.31-10.91-7.43-15.76c-11.06-17.22-30.72-19.37-45.45-5.11
		C26.84,83.8,21.44,96.7,18.8,110.92c-0.66,3.55-0.41,8.34-2.6,10.22c-2.15,1.85-6.86,0.74-10.45,0.88
		c-1.68,0.06-3.36,0.01-5.42,0.01c0-24.24,0-48.29,0-72.98c4.9,0,9.9-0.09,14.89,0.1c0.69,0.03,1.71,1.38,1.9,2.26
		c0.56,2.66,0.7,5.4,1.16,8.08c0.68,3.91,1.43,3.97,4.72,1.75c6.53-4.41,12.86-9.43,19.98-12.58c23-10.18,44.34-5.69,63.84,9.25
		c4.81,3.69,9.04,8.14,13.8,12.47c2.29-2.32,4.65-4.85,7.17-7.21c13.26-12.44,28.59-20.13,47.17-19.82
		c16.17,0.27,29.81,6.97,42.07,17.05c1.2,0.99,2.81,1.46,4.23,2.18c0.49-1.42,1.22-2.81,1.42-4.27c1.32-9.36,1.28-9.36,10.69-9.35
		c2.31,0,4.62,0,7.23,0c0,24.47,0,48.51,0,73.05c-5.02,0-9.92,0.11-14.79-0.12c-0.77-0.04-1.89-1.52-2.12-2.5
		c-1.19-5.04-1.96-10.19-3.22-15.21c-3.15-12.48-8.86-23.58-18.74-32.07c-14.38-12.35-31.85-10.17-42.9,5.21
		c-6.66,9.27-9.86,19.96-11.86,30.99c-4.01,22.1-5.24,44.31-1.22,66.56c1.88,10.42,5.31,20.31,11.57,29.04
		c0.45,0.63,0.92,1.26,1.4,1.87c9.74,12.39,19.96,14.89,34.23,8.19c13.36-6.28,21.26-17.44,26.79-30.59
		c3.79-9.02,3.71-9.05,13.5-9.08c2.18-0.01,4.36,0,7.04,0c-0.32,2.09-0.36,3.76-0.83,5.3c-6.65,21.76-18.87,39.53-38.48,51.47
		c-24.23,14.76-49.6,10.3-68.35-11.7C128.17,214.17,124.38,208.43,120.69,203.47z"/>
	<path class="st0" d="M0.01,33.28c0-9.93-0.04-19.39,0.08-28.84c0.01-0.73,0.99-1.91,1.71-2.09c3.49-0.86,7.05-1.44,11.28-2.26
		c0,6.84,0,13.2,0,19.79c33.8,0,66.97,0,100.58,0c0-6.43,0-12.85,0-19.64c4.59,0,8.76,0,13.36,0c0,6.52,0,12.94,0,19.6
		c33.59,0,66.75,0,100.48,0c0-6.35,0-12.75,0-19.85c4.41,0.84,8.18,1.47,11.89,2.37c0.66,0.16,1.48,1.48,1.49,2.27
		c0.1,9.45,0.07,18.91,0.07,28.64C160.6,33.28,80.6,33.28,0.01,33.28z"/>
</g>
</svg>
