<?xml version="1.0" encoding="utf-8"?>
<!-- Generator: Adobe Illustrator 27.0.1, SVG Export Plug-In . SVG Version: 6.00 Build 0)  -->
<svg version="1.1" id="Livello_1" xmlns="http://www.w3.org/2000/svg" xmlns:xlink="http://www.w3.org/1999/xlink" x="0px" y="0px"
	 viewBox="0 0 240.9 239.7" style="enable-background:new 0 0 240.9 239.7;" xml:space="preserve">
<style type="text/css">
	.st0{fill:#DFDFDF;}
</style>
<path class="st0" d="M120.7,203.5c-5.6,6.8-10.8,14.3-17.1,20.6c-11.7,11.7-25.7,17.7-42.7,14.7c-10.5-1.8-19.9-6-28.1-12.6
	C17.4,214,7,198.4,1.4,179.5c-0.4-1.5-0.6-3-0.9-5.2c5.6,0,10.9-0.1,16.1,0.1c0.8,0,1.8,1.9,2.2,3.1c3.7,10.2,8.5,19.7,16.4,27.5
	C42,211.8,50,216,59.4,217.6c5.6,1,10.5-1.1,14.9-4.3c10.8-7.8,15.9-19.2,19.3-31.6c3.3-12.1,4.2-24.5,3.9-37
	c-0.4-17-1.7-34-7.2-50.2C88.4,89,86,83.5,82.8,78.7c-11.1-17.2-30.7-19.4-45.5-5.1c-10.5,10.2-16,23.1-18.6,37.3
	c-0.7,3.6-0.4,8.3-2.6,10.2c-2.1,1.8-6.9,0.7-10.4,0.9c-1.7,0.1-3.4,0-5.4,0V49c4.9,0,9.9-0.1,14.9,0.1c0.7,0,1.7,1.4,1.9,2.3
	c0.6,2.7,0.7,5.4,1.2,8.1c0.7,3.9,1.4,4,4.7,1.8c6.5-4.4,12.9-9.4,20-12.6c23-10.2,44.3-5.7,63.8,9.2c4.8,3.7,9,8.1,13.8,12.5
	c2.3-2.3,4.7-4.8,7.2-7.2C141.1,50.7,156.4,43,175,43.3c16.2,0.3,29.8,7,42.1,17c1.2,1,2.8,1.5,4.2,2.2c0.5-1.4,1.2-2.8,1.4-4.3
	c1.3-9.4,1.3-9.4,10.7-9.3c2.3,0,4.6,0,7.2,0V122c-5,0-9.9,0.1-14.8-0.1c-0.8,0-1.9-1.5-2.1-2.5c-1.2-5-2-10.2-3.2-15.2
	c-3.1-12.5-8.9-23.6-18.7-32.1c-14.4-12.3-31.9-10.2-42.9,5.2c-6.7,9.3-9.9,20-11.9,31c-4,22.1-5.2,44.3-1.2,66.6
	c1.9,10.4,5.3,20.3,11.6,29c0.4,0.6,0.9,1.3,1.4,1.9c9.7,12.4,20,14.9,34.2,8.2c13.4-6.3,21.3-17.4,26.8-30.6
	c3.8-9,3.7-9.1,13.5-9.1c2.2,0,4.4,0,7,0c-0.3,2.1-0.4,3.8-0.8,5.3c-6.6,21.8-18.9,39.5-38.5,51.5c-24.2,14.8-49.6,10.3-68.3-11.7
	C128.2,214.2,124.4,208.4,120.7,203.5L120.7,203.5z"/>
<path class="st0" d="M0,33.3c0-9.9,0-19.4,0.1-28.8c0-0.7,1-1.9,1.7-2.1c3.5-0.9,7.1-1.4,11.3-2.3v19.8h100.6V0.2H127v19.6h100.5V0
	c4.4,0.8,8.2,1.5,11.9,2.4c0.7,0.2,1.5,1.5,1.5,2.3c0.1,9.5,0.1,18.9,0.1,28.6H0z"/>
</svg>
