<?xml version="1.0" encoding="utf-8"?>
<!-- Generator: Adobe Illustrator 27.1.1, SVG Export Plug-In . SVG Version: 6.00 Build 0)  -->
<svg version="1.1" id="Layer_1" xmlns="http://www.w3.org/2000/svg" xmlns:xlink="http://www.w3.org/1999/xlink" x="0px" y="0px"
	 viewBox="0 0 25 15.62" style="enable-background:new 0 0 25 15.62;" xml:space="preserve">
<style type="text/css">
	.st0{fill:#C7B299;}
	.st1{fill:#FF1E35;}
	.st2{fill:#0085C4;}
	.st3{fill:#FFFFFF;}
</style>
<path class="st0" d="M25,14.79c0,0.46-0.37,0.83-0.83,0.83H0.83C0.37,15.62,0,15.25,0,14.79V0.83C0,0.37,0.37,0,0.83,0h23.33
	C24.63,0,25,0.37,25,0.83V14.79z"/>
<polygon class="st1" points="15.48,12.3 15.71,12.29 15.94,12.28 16.16,12.25 16.38,12.21 16.6,12.16 16.81,12.1 17.02,12.03 
	17.23,11.95 17.43,11.86 17.62,11.76 17.81,11.65 17.99,11.53 18.17,11.41 18.34,11.27 18.5,11.13 18.65,10.98 18.8,10.83 
	18.94,10.66 19.08,10.49 19.2,10.32 19.32,10.13 19.43,9.95 19.53,9.75 19.62,9.55 19.7,9.35 19.77,9.14 19.83,8.93 19.88,8.71 
	19.92,8.49 19.95,8.26 19.96,8.04 19.97,7.8 19.96,7.57 19.95,7.35 19.92,7.12 19.88,6.9 19.83,6.69 19.77,6.48 19.7,6.27 
	19.62,6.06 19.53,5.87 19.43,5.67 19.32,5.49 19.2,5.3 19.08,5.13 18.94,4.96 18.8,4.8 18.65,4.64 18.5,4.49 18.34,4.35 18.17,4.22 
	17.99,4.09 17.81,3.98 17.62,3.87 17.43,3.77 17.23,3.68 17.02,3.6 16.81,3.53 16.6,3.47 16.38,3.42 16.16,3.38 15.94,3.35 
	15.71,3.33 15.48,3.33 15.24,3.33 15.02,3.35 14.79,3.38 14.57,3.42 14.35,3.47 14.14,3.53 13.93,3.6 13.73,3.68 13.53,3.77 
	13.34,3.87 13.15,3.98 12.96,4.09 12.79,4.22 12.62,4.35 12.46,4.49 12.3,4.64 12.15,4.8 12.01,4.96 11.88,5.13 11.75,5.3 
	11.64,5.49 11.53,5.67 11.43,5.87 11.34,6.06 11.26,6.27 11.19,6.48 11.13,6.69 11.08,6.9 11.04,7.12 11.01,7.35 11,7.57 10.99,7.8 
	11,8.04 11.01,8.26 11.04,8.49 11.08,8.71 11.13,8.93 11.19,9.14 11.26,9.35 11.34,9.55 11.43,9.75 11.53,9.95 11.64,10.13 
	11.75,10.32 11.88,10.49 12.01,10.66 12.15,10.83 12.3,10.98 12.46,11.13 12.62,11.27 12.79,11.41 12.96,11.53 13.15,11.65 
	13.34,11.76 13.53,11.86 13.73,11.95 13.93,12.03 14.14,12.1 14.35,12.16 14.57,12.21 14.79,12.25 15.02,12.28 15.24,12.29 "/>
<polygon class="st2" points="9.52,12.3 9.76,12.29 9.98,12.28 10.21,12.25 10.43,12.21 10.65,12.16 10.86,12.1 11.07,12.03 
	11.27,11.95 11.47,11.86 11.67,11.76 11.85,11.65 12.04,11.53 12.21,11.41 12.38,11.27 12.54,11.13 12.7,10.98 12.85,10.83 
	12.99,10.66 13.12,10.49 13.25,10.32 13.36,10.13 13.47,9.95 13.57,9.75 13.66,9.55 13.74,9.35 13.81,9.14 13.87,8.93 13.92,8.71 
	13.96,8.49 13.99,8.26 14,8.04 14.01,7.8 14,7.57 13.99,7.35 13.96,7.12 13.92,6.9 13.87,6.69 13.81,6.48 13.74,6.27 13.66,6.06 
	13.57,5.87 13.47,5.67 13.36,5.49 13.25,5.3 13.12,5.13 12.99,4.96 12.85,4.8 12.7,4.64 12.54,4.49 12.38,4.35 12.21,4.22 
	12.04,4.09 11.85,3.98 11.67,3.87 11.47,3.77 11.27,3.68 11.07,3.6 10.86,3.53 10.65,3.47 10.43,3.42 10.21,3.38 9.98,3.35 
	9.76,3.33 9.52,3.33 9.29,3.33 9.06,3.35 8.84,3.38 8.62,3.42 8.4,3.47 8.19,3.53 7.98,3.6 7.77,3.68 7.58,3.77 7.38,3.87 
	7.19,3.98 7.01,4.09 6.83,4.22 6.67,4.35 6.5,4.49 6.35,4.64 6.2,4.8 6.06,4.96 5.92,5.13 5.8,5.3 5.68,5.49 5.57,5.67 5.47,5.87 
	5.38,6.06 5.3,6.27 5.23,6.48 5.17,6.69 5.12,6.9 5.08,7.12 5.05,7.35 5.04,7.57 5.03,7.8 5.04,8.04 5.05,8.26 5.08,8.49 5.12,8.71 
	5.17,8.93 5.23,9.14 5.3,9.35 5.38,9.55 5.47,9.75 5.57,9.95 5.68,10.13 5.8,10.32 5.92,10.49 6.06,10.66 6.2,10.83 6.35,10.98 
	6.5,11.13 6.67,11.27 6.83,11.41 7.01,11.53 7.19,11.65 7.38,11.76 7.58,11.86 7.77,11.95 7.98,12.03 8.19,12.1 8.4,12.16 
	8.62,12.21 8.84,12.25 9.06,12.28 9.29,12.29 "/>
<polygon class="st1" points="11.95,5.03 14.22,5.03 14.22,4.78 12.17,4.78 "/>
<polygon class="st1" points="11.59,5.57 14.22,5.57 14.22,5.32 11.75,5.32 "/>
<polygon class="st1" points="11.32,6.11 14.22,6.11 14.22,5.85 11.45,5.85 "/>
<polygon class="st1" points="11.15,6.64 14.22,6.64 14.22,6.39 11.23,6.39 "/>
<polygon class="st1" points="11.04,7.17 14.22,7.17 14.22,6.92 11.08,6.92 "/>
<polygon class="st1" points="11.47,9.77 14.22,9.77 14.22,9.52 11.35,9.52 "/>
<polygon class="st1" points="11.79,10.33 14.22,10.33 14.22,10.08 11.62,10.08 "/>
<polygon class="st1" points="12.19,10.87 14.2,10.87 14.2,10.62 11.97,10.62 "/>
<g>
	<g>
		<polygon class="st1" points="19.23,10.56 19.24,10.52 19.27,10.48 19.3,10.45 19.33,10.42 19.36,10.4 19.4,10.39 19.45,10.39 
			19.49,10.39 19.53,10.4 19.57,10.42 19.6,10.45 19.63,10.48 19.65,10.52 19.66,10.56 19.62,10.56 19.61,10.53 19.59,10.5 
			19.57,10.47 19.55,10.45 19.52,10.44 19.48,10.43 19.45,10.42 19.41,10.43 19.38,10.44 19.35,10.45 19.32,10.47 19.3,10.5 
			19.28,10.53 19.28,10.56 		"/>
		<polygon class="st1" points="19.37,10.56 19.37,10.51 19.45,10.51 19.47,10.51 19.49,10.51 19.5,10.51 19.52,10.52 19.53,10.53 
			19.53,10.54 19.54,10.55 19.54,10.56 19.5,10.56 19.5,10.56 19.5,10.55 19.5,10.55 19.49,10.54 19.48,10.54 19.48,10.53 
			19.47,10.53 19.46,10.53 19.45,10.53 19.41,10.53 19.41,10.56 		"/>
		<polygon class="st1" points="19.23,10.6 19.23,10.56 19.23,10.56 19.28,10.56 19.27,10.57 19.27,10.6 		"/>
		<polygon class="st1" points="19.37,10.6 19.37,10.56 19.41,10.56 19.41,10.59 19.45,10.59 19.46,10.59 19.47,10.59 19.48,10.59 
			19.49,10.59 19.49,10.58 19.5,10.58 19.5,10.57 19.5,10.56 19.54,10.56 19.54,10.56 19.54,10.57 19.53,10.58 19.53,10.59 
			19.53,10.6 		"/>
		<polygon class="st1" points="19.62,10.6 19.62,10.57 19.62,10.56 19.66,10.56 19.66,10.56 19.67,10.6 		"/>
		<polygon class="st1" points="19.23,10.6 19.23,10.61 19.23,10.65 19.24,10.69 19.27,10.73 19.3,10.76 19.33,10.78 19.36,10.8 
			19.4,10.81 19.45,10.82 19.49,10.81 19.53,10.8 19.57,10.78 19.6,10.76 19.63,10.73 19.65,10.69 19.66,10.65 19.67,10.61 
			19.67,10.6 19.62,10.6 19.62,10.61 19.62,10.64 19.61,10.68 19.59,10.71 19.57,10.74 19.55,10.76 19.52,10.77 19.48,10.79 
			19.45,10.79 19.41,10.79 19.38,10.77 19.35,10.76 19.32,10.74 19.3,10.71 19.28,10.68 19.27,10.64 19.27,10.61 19.27,10.6 		"/>
		<polygon class="st1" points="19.37,10.6 19.37,10.69 19.41,10.69 19.41,10.61 19.45,10.61 19.49,10.69 19.53,10.69 19.48,10.61 
			19.49,10.61 19.5,10.61 19.51,10.61 19.52,10.6 19.53,10.6 		"/>
	</g>
</g>
<polygon class="st3" points="14.5,7.43 14.47,7.42 14.44,7.42 14.42,7.42 14.39,7.41 14.37,7.41 14.34,7.41 14.31,7.4 14.28,7.4 
	14.25,7.39 14.22,7.39 14.18,7.39 14.14,7.39 14.1,7.39 14.05,7.39 13.99,7.39 13.93,7.4 13.89,7.4 13.85,7.41 13.82,7.42 
	13.78,7.44 13.75,7.45 13.73,7.47 13.7,7.49 13.69,7.51 13.67,7.53 13.66,7.56 13.66,7.58 13.66,7.61 13.67,7.64 13.68,7.67 
	13.69,7.69 13.71,7.72 13.76,7.76 13.81,7.79 13.87,7.82 13.93,7.84 14,7.86 14.06,7.88 14.14,7.91 14.2,7.94 14.27,7.97 
	14.33,8.02 14.38,8.07 14.42,8.14 14.46,8.22 14.48,8.31 14.49,8.42 14.48,8.56 14.46,8.65 14.44,8.74 14.4,8.82 14.36,8.89 
	14.31,8.96 14.26,9.01 14.2,9.05 14.13,9.09 14.06,9.13 13.99,9.15 13.92,9.18 13.85,9.19 13.78,9.2 13.7,9.21 13.64,9.21 
	13.57,9.22 13.48,9.22 13.4,9.21 13.32,9.21 13.25,9.21 13.19,9.21 13.13,9.21 13.08,9.2 13.03,9.2 12.99,9.19 12.95,9.18 
	12.91,9.18 12.87,9.16 12.84,9.15 12.8,9.14 12.76,9.13 12.73,9.12 12.82,8.65 12.84,8.66 12.86,8.67 12.9,8.67 12.93,8.68 
	12.97,8.69 13.01,8.7 13.06,8.71 13.11,8.72 13.16,8.73 13.22,8.73 13.28,8.74 13.34,8.74 13.4,8.75 13.46,8.75 13.52,8.75 
	13.59,8.75 13.64,8.74 13.69,8.72 13.73,8.7 13.76,8.67 13.78,8.64 13.8,8.61 13.81,8.57 13.82,8.54 13.82,8.51 13.82,8.48 
	13.82,8.45 13.8,8.43 13.79,8.4 13.77,8.38 13.74,8.36 13.71,8.34 13.68,8.33 13.65,8.31 13.61,8.3 13.57,8.28 13.54,8.27 
	13.49,8.25 13.45,8.23 13.41,8.22 13.37,8.2 13.33,8.18 13.29,8.16 13.25,8.13 13.21,8.11 13.17,8.08 13.14,8.05 13.11,8.01 
	13.08,7.98 13.05,7.93 13.03,7.89 13.02,7.84 13,7.79 13,7.73 13,7.66 13,7.59 13,7.55 13.01,7.51 13.02,7.47 13.03,7.43 
	13.03,7.39 13.04,7.36 13.06,7.32 13.07,7.29 13.09,7.26 13.1,7.23 13.12,7.2 13.14,7.17 13.17,7.14 13.19,7.12 13.21,7.1 
	13.24,7.07 13.27,7.05 13.3,7.03 13.34,7.02 13.37,7 13.41,6.98 13.45,6.97 13.49,6.96 13.53,6.95 13.58,6.94 13.63,6.93 
	13.68,6.92 13.73,6.91 13.79,6.91 13.85,6.91 13.91,6.9 13.97,6.9 14.05,6.9 14.12,6.9 14.18,6.91 14.24,6.91 14.29,6.91 
	14.34,6.91 14.38,6.92 14.42,6.92 14.46,6.93 14.48,6.93 14.51,6.93 14.54,6.94 14.56,6.94 14.58,6.94 14.59,6.95 14.61,6.95 "/>
<polygon class="st3" points="14.99,6.44 15.58,6.44 15.49,6.96 15.85,6.96 15.77,7.43 15.4,7.42 15.2,8.59 15.2,8.62 15.2,8.64 
	15.2,8.66 15.21,8.68 15.22,8.69 15.23,8.71 15.24,8.72 15.26,8.73 15.27,8.74 15.29,8.74 15.31,8.75 15.33,8.75 15.36,8.76 
	15.38,8.76 15.4,8.76 15.43,8.76 15.48,8.76 15.52,8.76 15.56,8.75 15.59,8.74 15.61,8.74 15.63,8.73 15.65,8.72 15.65,8.72 
	15.59,9.12 15.57,9.13 15.56,9.14 15.54,9.15 15.53,9.16 15.51,9.16 15.49,9.17 15.47,9.17 15.45,9.18 15.43,9.19 15.41,9.19 
	15.39,9.19 15.36,9.2 15.33,9.2 15.3,9.21 15.27,9.21 15.23,9.22 15.07,9.22 14.99,9.21 14.91,9.2 14.85,9.19 14.79,9.17 
	14.74,9.16 14.7,9.13 14.67,9.11 14.64,9.08 14.62,9.05 14.6,9.02 14.59,8.98 14.58,8.94 14.58,8.89 14.58,8.85 14.59,8.8 
	14.6,8.75 "/>
<polygon class="st3" points="11.39,8.23 11.38,8.27 11.38,8.3 11.38,8.34 11.39,8.38 11.4,8.42 11.42,8.46 11.44,8.5 11.46,8.54 
	11.49,8.57 11.52,8.61 11.56,8.64 11.59,8.66 11.63,8.69 11.68,8.71 11.72,8.72 11.76,8.73 11.82,8.74 11.87,8.75 11.93,8.75 
	11.98,8.75 12.04,8.76 12.09,8.76 12.15,8.75 12.2,8.75 12.26,8.74 12.32,8.73 12.38,8.71 12.44,8.7 12.5,8.67 12.56,8.65 
	12.62,8.61 12.68,8.58 12.59,9.1 12.56,9.12 12.52,9.14 12.49,9.15 12.46,9.16 12.43,9.17 12.39,9.18 12.36,9.19 12.32,9.2 
	12.29,9.2 12.24,9.21 12.2,9.21 12.15,9.21 12.1,9.21 12.04,9.21 11.97,9.22 11.9,9.22 11.85,9.22 11.8,9.21 11.75,9.21 11.69,9.2 
	11.64,9.2 11.58,9.19 11.53,9.18 11.48,9.16 11.43,9.15 11.37,9.13 11.32,9.11 11.27,9.09 11.23,9.07 11.18,9.04 11.13,9.01 
	11.09,8.98 11.05,8.94 11.01,8.9 10.97,8.86 10.94,8.82 10.9,8.77 10.88,8.72 10.85,8.67 10.82,8.61 10.8,8.55 10.79,8.48 
	10.77,8.41 10.77,8.34 10.76,8.26 10.76,8.18 10.76,8.1 10.77,8.01 10.77,7.98 10.78,7.94 10.79,7.91 10.79,7.87 10.8,7.83 
	10.81,7.79 10.82,7.74 10.83,7.7 10.85,7.65 10.86,7.61 10.88,7.56 10.9,7.52 10.93,7.47 10.95,7.43 10.98,7.38 11.01,7.34 
	11.04,7.3 11.08,7.25 11.12,7.21 11.16,7.17 11.21,7.13 11.25,7.1 11.31,7.07 11.36,7.04 11.42,7.01 11.48,6.98 11.55,6.96 
	11.62,6.94 11.7,6.93 11.78,6.92 11.86,6.91 11.95,6.91 11.99,6.91 12.03,6.91 12.07,6.92 12.12,6.92 12.16,6.93 12.2,6.94 
	12.25,6.95 12.29,6.96 12.33,6.97 12.37,6.99 12.41,7 12.45,7.03 12.49,7.05 12.53,7.07 12.57,7.1 12.6,7.13 12.63,7.17 12.67,7.21 
	12.69,7.25 12.72,7.29 12.74,7.34 12.76,7.39 12.78,7.44 12.79,7.5 12.81,7.56 12.81,7.63 12.82,7.69 12.82,7.77 12.81,7.85 
	12.8,7.93 12.79,8.02 12.77,8.11 12.75,8.24 11.22,8.24 11.31,7.83 12.23,7.83 12.23,7.77 12.23,7.72 12.23,7.67 12.22,7.63 
	12.21,7.59 12.19,7.55 12.17,7.52 12.15,7.49 12.13,7.46 12.1,7.44 12.07,7.42 12.04,7.41 12,7.4 11.97,7.39 11.93,7.38 11.89,7.38 
	11.85,7.38 11.81,7.39 11.78,7.39 11.74,7.41 11.71,7.42 11.67,7.44 11.64,7.46 11.62,7.49 11.59,7.52 11.57,7.55 11.54,7.58 
	11.52,7.62 11.5,7.66 11.49,7.7 11.48,7.74 11.47,7.79 "/>
<polygon class="st3" points="10.57,8.75 10.48,9.22 9.95,9.22 9.95,9.17 9.96,9.13 9.97,9.09 9.97,9.05 9.98,9.02 9.98,8.99 
	9.99,8.98 9.99,8.97 9.97,9 9.93,9.03 9.89,9.06 9.85,9.09 9.8,9.12 9.74,9.15 9.69,9.17 9.63,9.19 9.57,9.21 9.51,9.23 9.45,9.24 
	9.38,9.25 9.32,9.25 9.26,9.25 9.2,9.25 9.15,9.24 9.07,9.22 9,9.2 8.94,9.17 8.89,9.14 8.84,9.11 8.8,9.07 8.77,9.03 8.74,8.98 
	8.71,8.94 8.69,8.89 8.68,8.85 8.66,8.8 8.65,8.75 8.65,8.7 8.65,8.65 8.64,8.61 8.65,8.53 8.66,8.45 8.68,8.37 8.71,8.3 8.74,8.24 
	8.78,8.17 8.83,8.12 8.88,8.06 8.93,8.01 8.99,7.97 9.05,7.93 9.12,7.9 9.18,7.87 9.25,7.84 9.32,7.83 9.4,7.81 9.4,7.81 9.41,7.81 
	9.43,7.81 9.45,7.81 9.47,7.8 9.5,7.8 9.53,7.8 9.57,7.79 9.61,7.79 9.64,7.79 9.68,7.78 9.71,7.78 9.75,7.78 9.78,7.78 9.8,7.77 
	9.83,7.77 9.85,7.77 9.88,7.77 9.9,7.77 9.93,7.78 9.95,7.78 9.98,7.78 10,7.78 10.03,7.78 10.05,7.78 10.07,7.78 10.08,7.78 
	10.1,7.78 10.11,7.78 10.12,7.78 10.12,7.78 10.12,7.78 10.13,7.77 10.14,7.73 10.15,7.69 10.15,7.65 10.14,7.63 10.14,7.6 
	10.13,7.58 10.12,7.56 10.11,7.54 10.1,7.52 10.08,7.5 10.06,7.48 10.04,7.47 10.02,7.45 10,7.44 9.98,7.43 9.96,7.42 9.93,7.42 
	9.91,7.41 9.88,7.41 9.82,7.41 9.76,7.41 9.69,7.41 9.62,7.42 9.56,7.42 9.49,7.43 9.42,7.44 9.35,7.44 9.29,7.45 9.23,7.46 
	9.17,7.47 9.12,7.48 9.08,7.5 9.04,7.51 9.01,7.52 8.99,7.53 9.14,7.03 9.18,7.01 9.23,6.99 9.28,6.97 9.33,6.96 9.38,6.95 
	9.43,6.94 9.49,6.94 9.55,6.93 9.6,6.93 9.66,6.92 9.73,6.92 9.79,6.92 9.86,6.92 9.93,6.92 10,6.92 10.07,6.92 10.13,6.93 
	10.2,6.94 10.26,6.96 10.33,6.97 10.39,7 10.46,7.03 10.52,7.07 10.58,7.11 10.64,7.15 10.68,7.21 10.73,7.26 10.76,7.33 10.78,7.4 
	10.8,7.47 10.8,7.55 10.79,7.64 "/>
<polygon class="st2" points="10.06,8.19 10.06,8.18 10.05,8.17 10.03,8.16 10.01,8.16 9.99,8.16 9.96,8.15 9.93,8.15 9.9,8.15 
	9.86,8.16 9.83,8.16 9.79,8.17 9.76,8.17 9.73,8.18 9.7,8.18 9.67,8.19 9.65,8.2 9.63,8.2 9.62,8.21 9.59,8.22 9.57,8.23 9.55,8.24 
	9.52,8.25 9.49,8.27 9.46,8.28 9.43,8.3 9.41,8.32 9.38,8.35 9.36,8.37 9.34,8.4 9.32,8.43 9.31,8.47 9.3,8.5 9.3,8.57 9.31,8.63 
	9.33,8.68 9.36,8.71 9.39,8.73 9.42,8.74 9.46,8.75 9.49,8.75 9.56,8.75 9.62,8.75 9.67,8.74 9.72,8.72 9.76,8.71 9.8,8.69 
	9.84,8.67 9.87,8.65 9.9,8.63 9.92,8.6 9.94,8.58 9.96,8.55 9.98,8.53 9.99,8.5 10,8.48 10,8.46 10.01,8.42 10.02,8.39 10.03,8.35 
	10.03,8.32 10.04,8.28 10.04,8.25 10.05,8.22 "/>
<polygon class="st3" points="6.12,9.22 5.54,9.22 6.02,6.44 7.03,6.44 7.13,8.09 7.81,6.44 8.85,6.44 8.36,9.22 7.79,9.22 
	8.15,7.14 8.13,7.14 7.27,9.22 6.62,9.22 6.62,9.13 6.61,8.9 6.59,8.57 6.56,8.19 6.54,7.82 6.52,7.48 6.51,7.24 6.5,7.14 6.5,7.14 
	6.5,7.14 6.49,7.14 6.48,7.14 6.48,7.14 6.47,7.14 6.47,7.14 6.48,7.14 "/>
<polygon class="st3" points="15.75,9.22 16.35,9.22 16.35,9.22 16.55,8.02 16.56,7.97 16.57,7.92 16.58,7.88 16.6,7.84 16.62,7.79 
	16.64,7.75 16.66,7.72 16.69,7.68 16.72,7.65 16.76,7.62 16.81,7.59 16.86,7.57 16.92,7.55 16.98,7.53 17.06,7.52 17.14,7.52 
	17.15,7.52 17.16,7.52 17.17,7.52 17.18,7.52 17.19,7.52 17.2,7.52 17.2,7.52 17.21,7.52 17.21,7.52 17.21,7.49 17.22,7.45 
	17.23,7.4 17.25,7.35 17.26,7.29 17.28,7.23 17.31,7.18 17.32,7.13 17.34,7.09 17.36,7.05 17.38,7.02 17.4,6.99 17.41,6.96 
	17.42,6.95 17.43,6.94 17.42,6.94 17.42,6.94 17.41,6.94 17.39,6.93 17.38,6.93 17.36,6.93 17.34,6.92 17.33,6.92 17.26,6.93 
	17.2,6.94 17.15,6.95 17.1,6.96 17.05,6.98 17.01,7 16.97,7.02 16.93,7.05 16.89,7.08 16.86,7.11 16.83,7.14 16.8,7.17 16.77,7.21 
	16.74,7.25 16.71,7.29 16.67,7.33 16.74,6.96 16.14,6.95 15.75,9.22 "/>
<polygon class="st3" points="18.35,6.92 18.41,6.93 18.48,6.93 18.54,6.94 18.6,6.95 18.66,6.96 18.72,6.97 18.77,6.99 18.83,7.01 
	18.88,7.03 18.93,7.05 18.98,7.08 19.02,7.11 19.06,7.14 19.11,7.17 19.14,7.2 19.18,7.24 19.22,7.28 19.25,7.32 19.28,7.36 
	19.31,7.41 19.33,7.45 19.36,7.5 19.38,7.55 19.4,7.6 19.41,7.65 19.42,7.71 19.44,7.76 19.45,7.82 19.45,7.88 19.45,7.94 19.46,8 
	19.45,8.06 19.45,8.14 19.44,8.21 19.43,8.28 19.42,8.35 19.4,8.41 19.38,8.47 19.36,8.53 19.34,8.59 19.31,8.65 19.29,8.7 
	19.26,8.75 19.23,8.8 19.19,8.84 19.15,8.88 19.12,8.92 19.08,8.96 19.04,9 18.99,9.03 18.95,9.06 18.9,9.09 18.85,9.12 18.8,9.14 
	18.75,9.16 18.7,9.18 18.65,9.2 18.59,9.21 18.53,9.23 18.48,9.24 18.42,9.24 18.36,9.25 18.3,9.25 18.24,9.25 18.18,9.25 
	18.12,9.25 18.06,9.24 18,9.24 17.95,9.23 17.89,9.21 17.84,9.2 17.79,9.18 17.73,9.16 17.69,9.14 17.64,9.12 17.59,9.09 
	17.55,9.06 17.51,9.03 17.47,9 17.43,8.96 17.39,8.93 17.36,8.89 17.33,8.84 17.3,8.8 17.27,8.75 17.24,8.71 17.22,8.66 17.2,8.6 
	17.18,8.55 17.17,8.49 17.15,8.43 17.14,8.37 17.13,8.31 17.13,8.24 17.13,8.18 17.13,8.11 17.13,8.04 17.14,7.97 17.15,7.9 
	17.17,7.84 17.18,7.78 17.2,7.72 17.22,7.66 17.24,7.6 17.26,7.55 17.29,7.5 17.32,7.45 17.35,7.4 17.38,7.36 17.42,7.31 
	17.45,7.27 17.49,7.23 17.53,7.19 17.58,7.16 17.62,7.13 17.67,7.1 17.72,7.07 17.77,7.05 17.82,7.02 17.87,7 17.92,6.99 
	17.98,6.97 18.04,6.96 18.1,6.94 18.16,6.94 18.22,6.93 18.28,6.93 "/>
<polygon class="st3" points="19.23,9.1 19.4,9.1 19.4,9.12 19.33,9.12 19.33,9.27 19.3,9.27 19.3,9.12 19.23,9.12 "/>
<polygon class="st3" points="19.42,9.1 19.48,9.1 19.54,9.23 19.54,9.23 19.6,9.1 19.65,9.1 19.65,9.27 19.61,9.27 19.61,9.14 
	19.61,9.14 19.55,9.27 19.52,9.27 19.46,9.14 19.46,9.14 19.46,9.27 19.42,9.27 "/>
<polygon class="st1" points="17.87,8.01 17.87,8.09 17.86,8.17 17.86,8.24 17.87,8.3 17.87,8.36 17.89,8.41 17.9,8.46 17.92,8.5 
	17.95,8.54 17.98,8.57 18.01,8.6 18.04,8.62 18.08,8.63 18.12,8.65 18.16,8.65 18.21,8.65 18.26,8.65 18.31,8.65 18.35,8.64 
	18.4,8.62 18.44,8.6 18.48,8.57 18.52,8.54 18.55,8.51 18.58,8.46 18.61,8.42 18.64,8.36 18.66,8.31 18.69,8.24 18.7,8.17 
	18.72,8.1 18.73,8.02 18.74,7.95 18.74,7.89 18.74,7.83 18.74,7.78 18.73,7.73 18.72,7.68 18.7,7.63 18.69,7.59 18.66,7.55 
	18.64,7.52 18.6,7.49 18.57,7.46 18.53,7.45 18.49,7.43 18.45,7.43 18.4,7.43 18.34,7.43 18.28,7.44 18.23,7.46 18.18,7.48 
	18.14,7.51 18.1,7.54 18.06,7.58 18.03,7.62 18,7.66 17.97,7.71 17.95,7.76 17.93,7.81 17.91,7.86 17.89,7.91 17.88,7.96 "/>
</svg>
