<?xml version="1.0" encoding="utf-8"?>
<!-- Generator: Adobe Illustrator 27.1.1, SVG Export Plug-In . SVG Version: 6.00 Build 0)  -->
<svg version="1.1" id="Layer_1" xmlns="http://www.w3.org/2000/svg" xmlns:xlink="http://www.w3.org/1999/xlink" x="0px" y="0px"
	 viewBox="0 0 25 15.62" style="enable-background:new 0 0 25 15.62;" xml:space="preserve">
<style type="text/css">
	.st0{fill:#C7B299;}
	.st1{fill-rule:evenodd;clip-rule:evenodd;fill:#FFB233;}
	.st2{fill-rule:evenodd;clip-rule:evenodd;fill:#FF1E35;}
	.st3{fill-rule:evenodd;clip-rule:evenodd;fill:#FFFFFF;}
</style>
<g>
	<path class="st0" d="M23.91,14.76c0,0.46-0.36,0.83-0.79,0.83H0.91c-0.44,0-0.79-0.37-0.79-0.83V0.83C0.11,0.37,0.47,0,0.91,0
		h22.21c0.44,0,0.79,0.37,0.79,0.83V14.76z"/>
	<g>
		<polygon class="st1" points="14.87,12.27 15.09,12.27 15.3,12.25 15.52,12.22 15.73,12.18 15.93,12.13 16.14,12.07 16.34,12 
			16.53,11.92 16.72,11.83 16.9,11.73 17.08,11.62 17.26,11.51 17.42,11.38 17.59,11.25 17.74,11.11 17.89,10.96 18.03,10.8 
			18.17,10.64 18.29,10.47 18.41,10.3 18.52,10.11 18.63,9.93 18.72,9.73 18.81,9.53 18.88,9.33 18.95,9.12 19.01,8.91 19.06,8.69 
			19.09,8.47 19.12,8.25 19.14,8.02 19.14,7.79 19.14,7.56 19.12,7.33 19.09,7.11 19.06,6.89 19.01,6.67 18.95,6.46 18.88,6.25 
			18.81,6.05 18.72,5.85 18.63,5.66 18.52,5.48 18.41,5.29 18.29,5.12 18.17,4.95 18.03,4.79 17.89,4.63 17.74,4.48 17.59,4.34 
			17.42,4.21 17.26,4.08 17.08,3.97 16.9,3.86 16.72,3.76 16.53,3.67 16.34,3.59 16.14,3.52 15.93,3.46 15.73,3.41 15.52,3.37 
			15.3,3.34 15.09,3.33 14.87,3.32 14.65,3.33 14.43,3.34 14.22,3.37 14.01,3.41 13.8,3.46 13.6,3.52 13.4,3.59 13.2,3.67 
			13.02,3.76 12.83,3.86 12.66,3.97 12.48,4.08 12.32,4.21 12.15,4.34 12,4.48 11.85,4.63 11.71,4.79 11.58,4.95 11.45,5.12 
			11.33,5.29 11.22,5.48 11.12,5.66 11.02,5.85 10.94,6.05 10.86,6.25 10.8,6.46 10.74,6.67 10.69,6.89 10.65,7.11 10.63,7.33 
			10.61,7.56 10.6,7.79 10.61,8.02 10.63,8.25 10.65,8.47 10.69,8.69 10.74,8.91 10.8,9.12 10.86,9.33 10.94,9.53 11.02,9.73 
			11.12,9.93 11.22,10.11 11.33,10.3 11.45,10.47 11.58,10.64 11.71,10.8 11.85,10.96 12,11.11 12.15,11.25 12.32,11.38 
			12.48,11.51 12.66,11.62 12.83,11.73 13.02,11.83 13.2,11.92 13.4,12 13.6,12.07 13.8,12.13 14.01,12.18 14.22,12.22 14.43,12.25 
			14.65,12.27 14.87,12.27 14.87,12.27 		"/>
		<polygon class="st2" points="9.15,12.27 9.37,12.27 9.59,12.25 9.8,12.22 10.01,12.18 10.22,12.13 10.42,12.07 10.62,12 
			10.81,11.92 11,11.83 11.19,11.73 11.36,11.62 11.54,11.51 11.7,11.38 11.87,11.25 12.02,11.11 12.17,10.96 12.31,10.8 
			12.44,10.64 12.57,10.47 12.69,10.3 12.8,10.11 12.9,9.93 13,9.73 13.08,9.53 13.16,9.33 13.22,9.12 13.28,8.91 13.33,8.69 
			13.37,8.47 13.39,8.25 13.41,8.02 13.42,7.79 13.41,7.56 13.39,7.33 13.37,7.11 13.33,6.89 13.28,6.67 13.22,6.46 13.16,6.25 
			13.08,6.05 13,5.85 12.9,5.66 12.8,5.48 12.69,5.29 12.57,5.12 12.44,4.95 12.31,4.79 12.17,4.63 12.02,4.48 11.87,4.34 
			11.7,4.21 11.54,4.08 11.36,3.97 11.19,3.86 11,3.76 10.81,3.67 10.62,3.59 10.42,3.52 10.22,3.46 10.01,3.41 9.8,3.37 9.59,3.34 
			9.37,3.33 9.15,3.32 8.93,3.33 8.72,3.34 8.5,3.37 8.29,3.41 8.09,3.46 7.88,3.52 7.68,3.59 7.49,3.67 7.3,3.76 7.12,3.86 
			6.94,3.97 6.76,4.08 6.59,4.21 6.43,4.34 6.28,4.48 6.13,4.63 5.99,4.79 5.85,4.95 5.73,5.12 5.61,5.29 5.5,5.48 5.39,5.66 
			5.3,5.85 5.21,6.05 5.14,6.25 5.07,6.46 5.01,6.67 4.96,6.89 4.93,7.11 4.9,7.33 4.88,7.56 4.88,7.79 4.88,8.02 4.9,8.25 
			4.93,8.47 4.96,8.69 5.01,8.91 5.07,9.12 5.14,9.33 5.21,9.53 5.3,9.73 5.39,9.93 5.5,10.11 5.61,10.3 5.73,10.47 5.85,10.64 
			5.99,10.8 6.13,10.96 6.28,11.11 6.43,11.25 6.59,11.38 6.76,11.51 6.94,11.62 7.12,11.73 7.3,11.83 7.49,11.92 7.68,12 
			7.88,12.07 8.09,12.13 8.29,12.18 8.5,12.22 8.72,12.25 8.93,12.27 9.15,12.27 9.15,12.27 		"/>
		<polygon class="st1" points="11.51,5.04 13.78,5.04 13.78,4.79 11.71,4.79 11.51,5.04 11.51,5.04 		"/>
		<polygon class="st1" points="11.17,5.58 13.78,5.58 13.78,5.33 11.31,5.33 11.17,5.58 11.17,5.58 		"/>
		<polygon class="st1" points="10.92,6.12 13.78,6.12 13.78,5.87 11.02,5.87 10.92,6.12 10.92,6.12 		"/>
		<polygon class="st1" points="10.74,6.66 13.78,6.66 13.78,6.41 10.81,6.41 10.74,6.66 10.74,6.66 		"/>
		<polygon class="st1" points="11.37,10.35 13.79,10.35 13.79,10.11 11.22,10.11 11.37,10.35 11.37,10.35 		"/>
		<polygon class="st1" points="11.79,10.89 13.79,10.89 13.79,10.65 11.58,10.65 11.79,10.89 11.79,10.89 		"/>
		<polygon class="st3" points="9.98,7.65 9.96,7.65 9.94,7.65 9.92,7.65 9.9,7.64 9.89,7.64 9.87,7.64 9.85,7.63 9.83,7.63 
			9.81,7.63 9.78,7.63 9.76,7.62 9.73,7.62 9.7,7.62 9.67,7.62 9.63,7.63 9.59,7.63 9.56,7.63 9.53,7.64 9.51,7.65 9.49,7.66 
			9.47,7.67 9.45,7.68 9.43,7.7 9.42,7.71 9.41,7.73 9.4,7.74 9.4,7.76 9.4,7.78 9.41,7.8 9.41,7.82 9.42,7.84 9.44,7.86 9.47,7.89 
			9.5,7.91 9.54,7.93 9.58,7.94 9.63,7.96 9.68,7.98 9.73,7.99 9.77,8.01 9.82,8.04 9.86,8.07 9.89,8.11 9.92,8.16 9.94,8.21 
			9.96,8.28 9.96,8.36 9.96,8.46 9.95,8.53 9.93,8.59 9.91,8.65 9.88,8.7 9.85,8.74 9.81,8.78 9.77,8.81 9.72,8.84 9.68,8.86 
			9.63,8.88 9.58,8.9 9.53,8.91 9.48,8.92 9.43,8.92 9.39,8.93 9.34,8.93 9.28,8.93 9.22,8.93 9.17,8.93 9.13,8.93 9.08,8.92 
			9.04,8.92 9.01,8.92 8.98,8.91 8.95,8.91 8.92,8.9 8.89,8.9 8.87,8.89 8.84,8.89 8.82,8.88 8.8,8.87 8.77,8.86 8.84,8.53 
			8.85,8.53 8.86,8.53 8.88,8.54 8.91,8.55 8.94,8.55 8.96,8.56 9,8.56 9.03,8.57 9.07,8.58 9.1,8.58 9.14,8.59 9.18,8.59 
			9.22,8.59 9.27,8.59 9.31,8.59 9.35,8.59 9.39,8.58 9.43,8.57 9.45,8.56 9.47,8.53 9.49,8.51 9.5,8.49 9.5,8.47 9.51,8.44 
			9.51,8.4 9.5,8.36 9.48,8.33 9.44,8.31 9.4,8.28 9.35,8.26 9.29,8.24 9.23,8.21 9.18,8.19 9.12,8.16 9.07,8.12 9.02,8.07 
			8.99,8.01 8.96,7.94 8.95,7.86 8.95,7.77 8.96,7.71 8.97,7.65 8.98,7.6 9,7.55 9.02,7.51 9.05,7.47 9.08,7.43 9.12,7.4 9.16,7.37 
			9.2,7.34 9.26,7.32 9.31,7.3 9.38,7.29 9.45,7.28 9.53,7.27 9.61,7.27 9.66,7.27 9.71,7.27 9.76,7.28 9.8,7.28 9.83,7.28 
			9.87,7.28 9.9,7.29 9.92,7.29 9.95,7.29 9.97,7.3 9.99,7.3 10,7.3 10.02,7.31 10.03,7.31 10.04,7.31 10.05,7.31 9.98,7.65 
			9.98,7.65 		"/>
		<polygon class="st3" points="10.32,6.94 10.72,6.94 10.66,7.3 10.9,7.3 10.85,7.65 10.6,7.64 10.46,8.48 10.46,8.51 10.46,8.54 
			10.48,8.56 10.5,8.57 10.52,8.58 10.55,8.59 10.58,8.6 10.62,8.6 10.65,8.6 10.68,8.6 10.7,8.59 10.73,8.59 10.75,8.58 
			10.76,8.58 10.77,8.57 10.77,8.57 10.72,8.85 10.71,8.86 10.7,8.87 10.69,8.87 10.68,8.88 10.67,8.88 10.66,8.89 10.65,8.89 
			10.63,8.9 10.62,8.9 10.6,8.9 10.59,8.91 10.57,8.91 10.55,8.91 10.53,8.92 10.51,8.92 10.48,8.92 10.37,8.92 10.31,8.92 
			10.26,8.91 10.22,8.9 10.18,8.89 10.15,8.88 10.12,8.86 10.09,8.84 10.08,8.82 10.06,8.8 10.05,8.78 10.04,8.75 10.04,8.72 
			10.04,8.69 10.04,8.66 10.04,8.62 10.05,8.59 10.32,6.94 10.32,6.94 		"/>
		<polygon class="st3" points="14.66,7.39 14.64,7.38 14.62,7.37 14.6,7.36 14.58,7.35 14.55,7.34 14.53,7.34 14.51,7.33 
			14.48,7.32 14.45,7.31 14.42,7.3 14.39,7.3 14.36,7.29 14.33,7.29 14.3,7.29 14.26,7.29 14.23,7.29 14.19,7.29 14.15,7.29 
			14.12,7.3 14.07,7.3 14.03,7.31 13.99,7.33 13.95,7.35 13.91,7.38 13.87,7.41 13.84,7.45 13.8,7.5 13.77,7.56 13.73,7.62 
			13.7,7.7 13.68,7.78 13.65,7.88 13.65,7.93 13.64,7.99 13.64,8.04 13.64,8.09 13.64,8.14 13.65,8.19 13.67,8.24 13.68,8.28 
			13.7,8.32 13.73,8.36 13.76,8.4 13.79,8.43 13.83,8.45 13.88,8.48 13.93,8.5 13.98,8.51 14,8.51 14.02,8.52 14.05,8.52 
			14.08,8.53 14.11,8.53 14.14,8.53 14.18,8.53 14.21,8.53 14.25,8.52 14.29,8.51 14.32,8.5 14.36,8.49 14.4,8.47 14.43,8.45 
			14.46,8.43 14.49,8.4 14.42,8.81 14.41,8.81 14.41,8.82 14.39,8.83 14.38,8.84 14.37,8.85 14.35,8.87 14.32,8.88 14.3,8.88 
			14.26,8.9 14.23,8.9 14.18,8.91 14.13,8.92 14.08,8.92 14.01,8.92 13.94,8.92 13.86,8.91 13.79,8.91 13.72,8.89 13.66,8.87 
			13.59,8.84 13.53,8.8 13.47,8.76 13.41,8.7 13.36,8.64 13.31,8.58 13.27,8.5 13.24,8.42 13.21,8.32 13.19,8.22 13.19,8.11 
			13.19,8 13.2,7.87 13.22,7.81 13.23,7.75 13.24,7.69 13.26,7.63 13.27,7.58 13.29,7.53 13.31,7.48 13.33,7.43 13.35,7.39 
			13.37,7.34 13.4,7.3 13.43,7.26 13.45,7.22 13.48,7.19 13.51,7.15 13.54,7.12 13.57,7.09 13.61,7.06 13.64,7.04 13.68,7.01 
			13.71,6.99 13.75,6.97 13.79,6.95 13.84,6.94 13.88,6.92 13.92,6.91 13.97,6.9 14.02,6.89 14.07,6.88 14.12,6.88 14.17,6.87 
			14.23,6.87 14.27,6.87 14.32,6.88 14.36,6.88 14.4,6.89 14.45,6.89 14.48,6.9 14.52,6.91 14.56,6.92 14.59,6.93 14.62,6.94 
			14.65,6.94 14.67,6.95 14.69,6.96 14.71,6.97 14.72,6.97 14.73,6.98 14.66,7.39 14.66,7.39 		"/>
		<polygon class="st3" points="18.2,8.92 17.8,8.92 17.83,8.75 17.83,8.74 17.81,8.77 17.78,8.8 17.76,8.82 17.73,8.84 17.71,8.86 
			17.68,8.88 17.65,8.89 17.63,8.9 17.6,8.92 17.57,8.92 17.55,8.93 17.52,8.93 17.49,8.94 17.46,8.94 17.43,8.94 17.4,8.94 
			17.33,8.94 17.26,8.92 17.2,8.9 17.14,8.86 17.09,8.82 17.04,8.77 17,8.71 16.97,8.65 16.94,8.58 16.91,8.51 16.9,8.43 
			16.89,8.36 16.88,8.28 16.88,8.2 16.89,8.12 16.9,8.05 16.92,7.96 16.95,7.87 16.98,7.8 17.02,7.72 17.05,7.66 17.1,7.6 
			17.14,7.54 17.19,7.49 17.24,7.45 17.29,7.41 17.35,7.38 17.4,7.35 17.46,7.33 17.52,7.32 17.58,7.31 17.63,7.3 17.68,7.31 
			17.72,7.31 17.75,7.32 17.79,7.33 17.82,7.34 17.85,7.35 17.88,7.37 17.91,7.39 17.93,7.4 17.95,7.42 17.97,7.44 17.99,7.46 
			18,7.48 18.01,7.5 18.02,7.52 18.03,7.54 18.03,7.54 18.13,6.95 18.53,6.95 18.2,8.92 18.2,8.92 		"/>
		<polygon class="st1" points="17.55,8.56 17.59,8.55 17.63,8.54 17.66,8.53 17.69,8.52 17.72,8.5 17.75,8.48 17.78,8.45 17.8,8.42 
			17.83,8.39 17.85,8.36 17.87,8.32 17.88,8.29 17.9,8.25 17.91,8.21 17.92,8.17 17.92,8.13 17.93,8.09 17.94,8.04 17.94,8 
			17.93,7.96 17.93,7.92 17.92,7.88 17.91,7.85 17.9,7.81 17.89,7.78 17.87,7.75 17.85,7.73 17.83,7.71 17.81,7.69 17.78,7.68 
			17.75,7.67 17.72,7.67 17.68,7.67 17.65,7.68 17.61,7.69 17.58,7.7 17.55,7.72 17.52,7.75 17.5,7.77 17.47,7.8 17.45,7.84 
			17.43,7.87 17.41,7.91 17.4,7.95 17.38,7.99 17.37,8.03 17.36,8.07 17.35,8.11 17.34,8.18 17.35,8.25 17.36,8.33 17.38,8.4 
			17.41,8.46 17.44,8.51 17.49,8.54 17.55,8.56 17.55,8.56 		"/>
		<polygon class="st3" points="8.7,8.59 8.65,8.92 8.28,8.92 8.29,8.86 8.3,8.8 8.31,8.76 8.31,8.74 8.29,8.76 8.27,8.79 8.24,8.81 
			8.21,8.83 8.18,8.85 8.14,8.87 8.1,8.89 8.07,8.9 8.02,8.92 7.98,8.93 7.94,8.94 7.9,8.94 7.86,8.95 7.81,8.95 7.77,8.94 
			7.73,8.94 7.68,8.92 7.64,8.91 7.6,8.89 7.56,8.87 7.53,8.84 7.5,8.81 7.48,8.79 7.46,8.76 7.44,8.72 7.43,8.69 7.41,8.66 
			7.41,8.62 7.4,8.59 7.4,8.55 7.39,8.52 7.39,8.49 7.4,8.43 7.41,8.37 7.42,8.32 7.44,8.27 7.46,8.22 7.49,8.18 7.52,8.13 
			7.55,8.1 7.59,8.06 7.63,8.03 7.67,8 7.71,7.98 7.76,7.96 7.81,7.94 7.86,7.93 7.91,7.92 7.91,7.92 7.92,7.92 7.93,7.91 
			7.94,7.91 7.96,7.91 7.98,7.91 8,7.9 8.03,7.9 8.05,7.9 8.08,7.9 8.1,7.89 8.12,7.89 8.15,7.89 8.17,7.89 8.19,7.89 8.2,7.89 
			8.24,7.89 8.27,7.89 8.3,7.89 8.34,7.89 8.36,7.89 8.38,7.89 8.4,7.89 8.4,7.89 8.4,7.88 8.41,7.86 8.42,7.82 8.42,7.8 8.42,7.76 
			8.4,7.73 8.39,7.71 8.36,7.68 8.34,7.66 8.31,7.65 8.27,7.64 8.23,7.64 8.19,7.64 8.15,7.63 8.11,7.63 8.06,7.64 8.01,7.64 
			7.97,7.64 7.92,7.65 7.88,7.65 7.83,7.66 7.79,7.67 7.75,7.68 7.72,7.68 7.69,7.69 7.66,7.7 7.64,7.71 7.62,7.72 7.73,7.36 
			7.76,7.34 7.79,7.33 7.83,7.32 7.86,7.31 7.89,7.31 7.93,7.3 7.97,7.29 8.01,7.29 8.05,7.29 8.09,7.29 8.13,7.28 8.18,7.28 
			8.22,7.28 8.27,7.28 8.32,7.29 8.37,7.29 8.41,7.29 8.46,7.3 8.5,7.31 8.55,7.32 8.59,7.34 8.63,7.36 8.68,7.39 8.72,7.42 
			8.75,7.45 8.79,7.49 8.81,7.53 8.84,7.57 8.85,7.62 8.86,7.67 8.86,7.73 8.85,7.79 8.7,8.59 8.7,8.59 		"/>
		<polygon class="st2" points="8.36,8.19 8.36,8.18 8.35,8.18 8.34,8.17 8.33,8.17 8.31,8.17 8.29,8.16 8.27,8.16 8.25,8.16 
			8.23,8.17 8.2,8.17 8.18,8.17 8.16,8.18 8.13,8.18 8.11,8.18 8.1,8.19 8.08,8.19 8.07,8.19 8.06,8.2 8.04,8.21 8.03,8.21 
			8.01,8.22 7.99,8.23 7.97,8.24 7.95,8.26 7.93,8.27 7.91,8.29 7.9,8.3 7.88,8.32 7.87,8.34 7.86,8.36 7.85,8.39 7.84,8.41 
			7.84,8.46 7.85,8.5 7.86,8.53 7.88,8.56 7.9,8.57 7.93,8.58 7.95,8.58 7.97,8.59 8.02,8.58 8.06,8.58 8.09,8.57 8.13,8.56 
			8.15,8.55 8.18,8.54 8.21,8.53 8.23,8.51 8.25,8.5 8.26,8.48 8.28,8.46 8.29,8.44 8.3,8.42 8.31,8.41 8.32,8.39 8.32,8.37 
			8.33,8.33 8.34,8.28 8.35,8.23 8.36,8.19 8.36,8.19 		"/>
		<polygon class="st3" points="5.67,8.92 5.28,8.92 5.61,6.94 6.29,6.94 6.36,8.11 6.83,6.94 7.54,6.94 7.2,8.92 6.81,8.92 
			7.06,7.44 7.04,7.44 6.46,8.92 6.02,8.92 6.01,8.86 6,8.69 5.99,8.46 5.98,8.19 5.96,7.92 5.95,7.68 5.94,7.51 5.94,7.44 
			5.93,7.44 5.92,7.44 5.91,7.44 5.91,7.44 5.67,8.92 5.67,8.92 		"/>
		<polygon class="st3" points="15.85,8.59 15.79,8.92 15.43,8.92 15.43,8.86 15.44,8.8 15.44,8.76 15.44,8.75 15.42,8.77 15.4,8.79 
			15.37,8.81 15.34,8.83 15.31,8.85 15.28,8.87 15.24,8.89 15.21,8.9 15.17,8.92 15.13,8.93 15.09,8.94 15.05,8.94 15,8.95 
			14.96,8.95 14.93,8.94 14.89,8.94 14.84,8.92 14.79,8.91 14.75,8.89 14.71,8.87 14.68,8.84 14.65,8.81 14.63,8.79 14.61,8.76 
			14.59,8.72 14.58,8.69 14.57,8.66 14.56,8.62 14.55,8.59 14.55,8.55 14.55,8.52 14.55,8.49 14.55,8.43 14.56,8.37 14.57,8.32 
			14.59,8.27 14.61,8.22 14.64,8.18 14.67,8.13 14.7,8.1 14.74,8.06 14.78,8.03 14.82,8 14.87,7.98 14.91,7.96 14.96,7.94 15,7.93 
			15.05,7.92 15.06,7.92 15.06,7.92 15.07,7.91 15.09,7.91 15.11,7.91 15.13,7.91 15.15,7.9 15.17,7.9 15.2,7.9 15.22,7.9 
			15.25,7.89 15.27,7.89 15.29,7.89 15.31,7.89 15.33,7.89 15.35,7.89 15.39,7.89 15.42,7.89 15.45,7.89 15.48,7.89 15.51,7.89 
			15.54,7.89 15.55,7.89 15.55,7.89 15.56,7.88 15.56,7.86 15.57,7.82 15.57,7.8 15.56,7.76 15.55,7.73 15.53,7.71 15.51,7.68 
			15.48,7.66 15.45,7.65 15.42,7.64 15.39,7.64 15.35,7.64 15.3,7.63 15.26,7.63 15.21,7.64 15.17,7.64 15.12,7.64 15.07,7.65 
			15.03,7.65 14.99,7.66 14.94,7.67 14.91,7.68 14.87,7.68 14.84,7.69 14.81,7.7 14.79,7.71 14.78,7.72 14.88,7.36 14.91,7.34 
			14.94,7.33 14.98,7.32 15.01,7.31 15.05,7.31 15.08,7.3 15.12,7.29 15.16,7.29 15.2,7.29 15.24,7.29 15.28,7.28 15.33,7.28 
			15.37,7.28 15.42,7.28 15.47,7.29 15.52,7.29 15.56,7.29 15.6,7.3 15.65,7.31 15.69,7.32 15.74,7.34 15.78,7.36 15.82,7.39 
			15.86,7.42 15.9,7.45 15.93,7.49 15.96,7.53 15.98,7.57 16,7.62 16.01,7.67 16.01,7.73 16,7.79 15.85,8.59 15.85,8.59 		"/>
		<polygon class="st3" points="15.79,8.93 15.8,8.92 15.86,8.59 15.84,8.58 15.78,8.92 15.79,8.91 15.79,8.93 15.8,8.93 15.8,8.92 
			15.79,8.93 15.79,8.93 		"/>
		<polygon class="st3" points="15.42,8.92 15.43,8.93 15.79,8.93 15.79,8.91 15.43,8.91 15.44,8.92 15.42,8.92 15.42,8.93 
			15.43,8.93 15.42,8.92 15.42,8.92 		"/>
		<polygon class="st3" points="15.45,8.75 15.43,8.74 15.43,8.76 15.43,8.8 15.43,8.86 15.42,8.92 15.44,8.92 15.44,8.86 15.45,8.8 
			15.44,8.76 15.44,8.75 15.43,8.74 15.45,8.75 15.45,8.75 		"/>
		<polygon class="st3" points="14.89,8.95 14.89,8.95 14.93,8.95 14.96,8.96 15,8.95 15.05,8.95 15.09,8.95 15.13,8.94 15.17,8.93 
			15.21,8.91 15.25,8.9 15.28,8.88 15.32,8.86 15.35,8.84 15.38,8.82 15.4,8.8 15.43,8.77 15.45,8.75 15.43,8.74 15.41,8.76 
			15.39,8.78 15.37,8.8 15.34,8.83 15.31,8.84 15.27,8.86 15.24,8.88 15.2,8.9 15.17,8.91 15.13,8.92 15.09,8.93 15.05,8.93 
			15,8.94 14.96,8.94 14.93,8.93 14.89,8.93 14.89,8.93 14.89,8.95 14.89,8.95 		"/>
		<polygon class="st3" points="14.54,8.49 14.54,8.49 14.54,8.52 14.54,8.55 14.55,8.59 14.55,8.63 14.56,8.66 14.57,8.69 
			14.58,8.73 14.6,8.76 14.62,8.79 14.65,8.82 14.67,8.85 14.71,8.87 14.74,8.9 14.79,8.92 14.83,8.93 14.89,8.95 14.89,8.93 
			14.84,8.91 14.79,8.9 14.75,8.88 14.72,8.86 14.69,8.83 14.66,8.81 14.64,8.78 14.62,8.75 14.6,8.72 14.59,8.69 14.58,8.66 
			14.57,8.62 14.56,8.59 14.56,8.55 14.56,8.52 14.56,8.49 14.56,8.49 14.54,8.49 14.54,8.49 		"/>
		<polygon class="st3" points="15.05,7.91 15.05,7.91 15,7.92 14.95,7.93 14.91,7.95 14.86,7.97 14.82,7.99 14.77,8.02 14.73,8.05 
			14.7,8.09 14.66,8.13 14.63,8.17 14.6,8.22 14.58,8.27 14.56,8.32 14.55,8.37 14.54,8.43 14.54,8.49 14.56,8.49 14.56,8.43 
			14.57,8.37 14.58,8.32 14.6,8.27 14.62,8.22 14.65,8.18 14.68,8.14 14.71,8.1 14.75,8.07 14.78,8.04 14.82,8.01 14.87,7.99 
			14.91,7.97 14.96,7.95 15.01,7.94 15.05,7.93 15.05,7.93 15.05,7.91 15.05,7.91 		"/>
		<polygon class="st3" points="15.35,7.88 15.35,7.88 15.33,7.88 15.31,7.88 15.29,7.88 15.27,7.88 15.25,7.89 15.22,7.89 
			15.2,7.89 15.17,7.89 15.15,7.9 15.13,7.9 15.11,7.9 15.09,7.9 15.07,7.9 15.06,7.91 15.06,7.91 15.05,7.91 15.05,7.93 
			15.06,7.93 15.07,7.92 15.07,7.92 15.09,7.92 15.11,7.92 15.13,7.92 15.15,7.91 15.17,7.91 15.2,7.91 15.22,7.9 15.25,7.9 
			15.27,7.9 15.29,7.9 15.31,7.9 15.33,7.9 15.35,7.9 15.35,7.9 15.35,7.88 15.35,7.88 		"/>
		<polygon class="st3" points="15.55,7.89 15.55,7.89 15.55,7.89 15.54,7.88 15.51,7.88 15.48,7.88 15.45,7.88 15.42,7.88 
			15.39,7.88 15.35,7.88 15.35,7.9 15.39,7.9 15.42,7.9 15.45,7.9 15.48,7.9 15.51,7.9 15.54,7.9 15.55,7.9 15.55,7.9 15.56,7.9 
			15.55,7.9 15.56,7.9 15.56,7.9 15.55,7.89 15.55,7.89 		"/>
		<polygon class="st3" points="15.56,7.8 15.56,7.8 15.56,7.82 15.55,7.86 15.55,7.88 15.55,7.89 15.56,7.9 15.57,7.89 15.57,7.86 
			15.57,7.82 15.58,7.8 15.58,7.8 15.56,7.8 15.56,7.8 		"/>
		<polygon class="st3" points="15.39,7.65 15.39,7.65 15.42,7.65 15.45,7.66 15.48,7.67 15.5,7.69 15.52,7.71 15.54,7.74 
			15.55,7.76 15.56,7.8 15.58,7.8 15.57,7.76 15.56,7.73 15.54,7.7 15.52,7.68 15.49,7.65 15.46,7.64 15.42,7.63 15.39,7.63 
			15.39,7.63 15.39,7.65 15.39,7.65 		"/>
		<polygon class="st3" points="14.77,7.72 14.78,7.73 14.8,7.72 14.82,7.71 14.84,7.7 14.87,7.69 14.91,7.68 14.95,7.68 14.99,7.67 
			15.03,7.66 15.07,7.66 15.12,7.65 15.17,7.65 15.21,7.65 15.26,7.65 15.3,7.65 15.35,7.65 15.39,7.65 15.39,7.63 15.35,7.63 
			15.3,7.62 15.26,7.62 15.21,7.63 15.17,7.63 15.12,7.63 15.07,7.64 15.03,7.65 14.98,7.65 14.94,7.66 14.91,7.67 14.87,7.67 
			14.84,7.68 14.81,7.69 14.79,7.7 14.77,7.71 14.79,7.72 14.77,7.72 14.77,7.72 		"/>
		<polygon class="st3" points="14.88,7.35 14.87,7.36 14.77,7.72 14.79,7.72 14.89,7.36 14.88,7.37 14.88,7.35 14.87,7.35 
			14.87,7.36 14.88,7.35 14.88,7.35 		"/>
		<polygon class="st3" points="15.52,7.28 15.52,7.28 15.47,7.28 15.42,7.27 15.37,7.27 15.33,7.27 15.28,7.27 15.24,7.28 
			15.2,7.28 15.16,7.28 15.12,7.28 15.08,7.29 15.05,7.3 15.01,7.3 14.98,7.31 14.94,7.32 14.91,7.33 14.88,7.35 14.88,7.37 
			14.91,7.35 14.95,7.34 14.98,7.33 15.01,7.32 15.05,7.31 15.09,7.31 15.12,7.3 15.16,7.3 15.2,7.3 15.24,7.3 15.28,7.3 15.33,7.3 
			15.37,7.3 15.42,7.3 15.47,7.3 15.52,7.3 15.52,7.3 15.52,7.28 15.52,7.28 		"/>
		<polygon class="st3" points="16.01,7.79 16.01,7.79 16.02,7.73 16.02,7.67 16.01,7.62 15.99,7.57 15.97,7.52 15.94,7.48 
			15.91,7.44 15.87,7.41 15.83,7.38 15.79,7.35 15.74,7.33 15.69,7.31 15.65,7.3 15.6,7.29 15.56,7.28 15.52,7.28 15.52,7.3 
			15.56,7.3 15.6,7.31 15.64,7.32 15.69,7.33 15.73,7.35 15.78,7.37 15.82,7.39 15.86,7.42 15.89,7.46 15.93,7.49 15.96,7.53 
			15.98,7.57 15.99,7.62 16,7.67 16,7.73 15.99,7.79 15.99,7.79 16.01,7.79 16.01,7.79 		"/>
		<polygon class="st3" points="15.86,8.59 15.86,8.59 16.01,7.79 15.99,7.79 15.84,8.58 15.84,8.58 15.86,8.59 15.86,8.59 		"/>
		<polygon class="st1" points="15.5,8.19 15.5,8.18 15.49,8.18 15.48,8.17 15.47,8.17 15.45,8.16 15.44,8.16 15.41,8.16 15.39,8.16 
			15.37,8.17 15.35,8.17 15.32,8.17 15.3,8.18 15.28,8.18 15.26,8.18 15.24,8.19 15.23,8.19 15.22,8.19 15.21,8.2 15.19,8.2 
			15.18,8.21 15.16,8.22 15.14,8.23 15.12,8.24 15.1,8.25 15.08,8.26 15.06,8.28 15.05,8.3 15.03,8.32 15.02,8.34 15.01,8.36 
			15,8.39 15,8.41 14.99,8.46 15,8.5 15.01,8.53 15.03,8.56 15.05,8.57 15.08,8.58 15.1,8.58 15.13,8.59 15.17,8.58 15.21,8.58 
			15.25,8.57 15.28,8.56 15.31,8.55 15.34,8.54 15.37,8.52 15.39,8.5 15.41,8.49 15.43,8.47 15.44,8.45 15.45,8.43 15.46,8.41 
			15.47,8.39 15.48,8.37 15.48,8.36 15.49,8.32 15.49,8.27 15.5,8.23 15.5,8.19 15.5,8.19 		"/>
		<polygon class="st3" points="18.47,8.71 18.47,8.68 18.48,8.64 18.5,8.6 18.53,8.57 18.56,8.55 18.59,8.53 18.63,8.51 18.67,8.51 
			18.71,8.51 18.75,8.53 18.78,8.55 18.81,8.57 18.84,8.6 18.86,8.64 18.87,8.68 18.87,8.71 18.83,8.71 18.83,8.69 18.82,8.65 
			18.81,8.62 18.79,8.6 18.76,8.58 18.74,8.56 18.7,8.55 18.67,8.55 18.64,8.55 18.61,8.56 18.58,8.58 18.56,8.6 18.54,8.62 
			18.52,8.65 18.51,8.69 18.51,8.71 18.47,8.71 18.47,8.71 		"/>
		<polygon class="st3" points="18.6,8.71 18.6,8.62 18.68,8.62 18.7,8.63 18.71,8.63 18.72,8.63 18.73,8.64 18.74,8.65 18.75,8.66 
			18.75,8.67 18.75,8.68 18.75,8.69 18.75,8.7 18.74,8.71 18.74,8.71 18.68,8.71 18.68,8.71 18.69,8.71 18.7,8.71 18.71,8.71 
			18.72,8.7 18.72,8.7 18.72,8.69 18.72,8.68 18.72,8.67 18.72,8.66 18.71,8.66 18.71,8.66 18.7,8.66 18.69,8.66 18.69,8.66 
			18.68,8.66 18.64,8.66 18.64,8.71 18.6,8.71 18.6,8.71 		"/>
		<polygon class="st3" points="18.47,8.71 18.47,8.72 18.47,8.77 18.48,8.81 18.5,8.84 18.53,8.87 18.56,8.9 18.59,8.92 18.63,8.93 
			18.67,8.94 18.71,8.93 18.75,8.92 18.78,8.9 18.81,8.87 18.84,8.84 18.86,8.81 18.87,8.77 18.87,8.72 18.87,8.71 18.83,8.71 
			18.83,8.72 18.83,8.76 18.82,8.79 18.81,8.82 18.79,8.85 18.76,8.87 18.74,8.88 18.7,8.9 18.67,8.9 18.64,8.9 18.61,8.88 
			18.58,8.87 18.56,8.85 18.54,8.82 18.52,8.79 18.51,8.76 18.51,8.72 18.51,8.71 18.47,8.71 18.47,8.71 		"/>
		<polygon class="st3" points="18.6,8.71 18.6,8.81 18.64,8.81 18.64,8.73 18.67,8.73 18.71,8.81 18.74,8.81 18.7,8.73 18.71,8.73 
			18.72,8.73 18.73,8.72 18.74,8.72 18.74,8.71 18.68,8.71 18.67,8.72 18.64,8.72 18.64,8.71 18.6,8.71 18.6,8.71 		"/>
		<polygon class="st3" points="15.96,8.92 16.37,8.92 16.37,8.92 16.51,8.06 16.52,8.03 16.53,8 16.53,7.96 16.55,7.93 16.56,7.9 
			16.58,7.86 16.6,7.83 16.62,7.81 16.65,7.78 16.67,7.76 16.71,7.73 16.74,7.71 16.79,7.7 16.83,7.69 16.88,7.68 16.94,7.68 
			16.96,7.68 16.97,7.68 16.98,7.68 16.98,7.68 17.04,7.29 17,7.29 16.96,7.3 16.92,7.3 16.89,7.31 16.86,7.33 16.83,7.34 
			16.8,7.36 16.77,7.37 16.75,7.4 16.72,7.42 16.7,7.44 16.68,7.47 16.65,7.49 16.63,7.52 16.61,7.55 16.59,7.58 16.63,7.3 
			16.23,7.3 15.96,8.92 15.96,8.92 15.96,8.92 		"/>
		<polygon class="st3" points="12.15,8.92 12.55,8.92 12.56,8.92 12.7,8.06 12.7,8.03 12.71,8 12.72,7.97 12.73,7.94 12.74,7.9 
			12.75,7.88 12.77,7.85 12.79,7.82 12.81,7.8 12.84,7.78 12.87,7.76 12.91,7.74 12.95,7.73 12.99,7.72 13.04,7.71 13.1,7.71 
			13.1,7.71 13.11,7.71 13.11,7.71 13.12,7.71 13.13,7.71 13.13,7.71 13.14,7.71 13.14,7.71 13.14,7.71 13.15,7.69 13.15,7.66 
			13.16,7.63 13.17,7.59 13.18,7.55 13.19,7.5 13.2,7.46 13.22,7.43 13.23,7.4 13.25,7.38 13.26,7.35 13.27,7.33 13.28,7.31 
			13.29,7.3 13.29,7.3 13.29,7.3 13.29,7.29 13.28,7.29 13.27,7.29 13.26,7.29 13.25,7.29 13.24,7.29 13.23,7.29 13.18,7.29 
			13.14,7.3 13.1,7.3 13.07,7.31 13.04,7.32 13.01,7.34 12.98,7.35 12.95,7.37 12.93,7.39 12.91,7.41 12.88,7.44 12.86,7.46 
			12.84,7.49 12.82,7.52 12.8,7.55 12.78,7.58 12.83,7.3 12.42,7.3 12.15,8.92 12.15,8.92 12.15,8.92 		"/>
		<path class="st3" d="M12.19,7.79L12.18,7.7l-0.02-0.08l-0.03-0.07l-0.04-0.06l-0.04-0.05L12,7.39l-0.05-0.04L11.9,7.33l-0.06-0.02
			l-0.06-0.02l-0.06-0.01l-0.06-0.01l-0.06,0l-0.12,0.01l-0.1,0.02l-0.09,0.03l-0.08,0.04l-0.07,0.05l-0.06,0.05l-0.06,0.06
			l-0.05,0.06l-0.04,0.06L10.9,7.71l-0.03,0.07l-0.02,0.06L10.83,7.9l-0.01,0.06l-0.01,0.06l-0.01,0.05L10.8,8.19l0,0.11l0.02,0.1
			l0.02,0.09l0.03,0.08l0.04,0.07l0.05,0.06l0.06,0.05l0.06,0.04l0.06,0.04l0.07,0.03l0.07,0.02l0.07,0.02l0.07,0.01l0.07,0.01
			l0.07,0h0.05l0.04,0h0.04l0.04,0l0.03,0l0.03,0l0.03,0l0.03,0l0.02,0l0.02-0.01l0.02-0.01l0.02-0.01l0.02-0.01L12,8.86l0.02-0.01
			l0.02-0.01l0.06-0.37l-0.04,0.03l-0.04,0.02l-0.04,0.02l-0.04,0.02L11.9,8.56l-0.04,0.01l-0.04,0.01l-0.04,0.01l-0.04,0l-0.04,0
			h-0.04l-0.04,0l-0.04,0l-0.04,0l-0.04,0l-0.04-0.01l-0.03-0.01l-0.03-0.01l-0.03-0.01l-0.03-0.02l-0.03-0.02l-0.02-0.02L11.3,8.46
			l-0.02-0.03l-0.02-0.03l-0.02-0.03l-0.01-0.03l-0.01-0.03L11.22,8.3l0-0.03l0-0.03l0-0.02h0.93l0.01-0.09L12.18,8l0.01-0.11
			L12.19,7.79z M11.8,7.92h-0.53l0,0l0,0l0-0.02l0.01-0.03l0.01-0.03l0.01-0.03l0.01-0.03l0.01-0.03l0.02-0.02l0.02-0.02l0.02-0.02
			l0.02-0.02l0.02-0.02l0.02-0.01l0.02-0.01l0.02-0.01l0.02-0.01l0.03,0l0.03,0l0.03,0l0.02,0l0.02,0.01l0.02,0.01l0.02,0.01
			l0.02,0.01l0.02,0.02l0.02,0.02l0.01,0.02l0.01,0.02l0.01,0.03l0.01,0.03l0.01,0.03l0,0.03l0,0.04L11.8,7.92z"/>
	</g>
</g>
</svg>
