<?xml version="1.0" encoding="utf-8"?>
<!-- Generator: Adobe Illustrator 27.1.1, SVG Export Plug-In . SVG Version: 6.00 Build 0)  -->
<svg version="1.1" id="Layer_1" xmlns="http://www.w3.org/2000/svg" xmlns:xlink="http://www.w3.org/1999/xlink" x="0px" y="0px"
	 viewBox="0 0 25 15.62" style="enable-background:new 0 0 25 15.62;" xml:space="preserve">
<style type="text/css">
	.st0{fill:#C7B299;}
	.st1{fill-rule:evenodd;clip-rule:evenodd;fill:#1B7EAE;}
	.st2{fill-rule:evenodd;clip-rule:evenodd;fill:#1E567C;}
	.st3{fill:#1E567C;}
</style>
<g>
	<path class="st0" d="M25,14.79c0,0.46-0.37,0.83-0.83,0.83H0.83C0.37,15.62,0,15.25,0,14.79V0.83C0,0.37,0.37,0,0.83,0h23.33
		C24.63,0,25,0.37,25,0.83V14.79z"/>
	<g>
		<g>
			<path class="st1" d="M18.59,6.14c-0.52,0-0.93,0.14-1.25,0.2l-0.1,0.79c0.16-0.08,0.66-0.21,1.07-0.23
				c0.41-0.01,0.66,0.08,0.57,0.43c-1.23,0-2.05,0.25-2.22,1.04c-0.24,1.36,1.25,1.32,1.84,0.73l-0.07,0.33h1.09L20,7.27
				C20.19,6.35,19.35,6.13,18.59,6.14z M18.66,8.35c-0.06,0.29-0.29,0.42-0.57,0.43c-0.24,0.01-0.46-0.2-0.3-0.45
				c0.12-0.21,0.46-0.26,0.67-0.26c0.08,0,0.18,0,0.27,0C18.7,8.17,18.69,8.25,18.66,8.35z"/>
			<polygon class="st1" points="20.93,5.28 20.03,9.44 21.14,9.44 22.05,5.28 20.93,5.28 20.93,5.28 			"/>
			<path class="st1" d="M15.83,5.3H13.8l-0.9,4.14h1.18l0.3-1.37h0.84c0.83,0,1.51-0.5,1.69-1.36C17.12,5.74,16.42,5.3,15.83,5.3z
				 M15.8,6.71c-0.07,0.31-0.39,0.57-0.69,0.57h-0.55l0.24-1.13h0.58C15.69,6.14,15.87,6.39,15.8,6.71z"/>
		</g>
		<g>
			<path class="st2" d="M7.95,6.14c-0.52,0-0.92,0.14-1.22,0.2l-0.1,0.79c0.14-0.08,0.64-0.21,1.04-0.23
				c0.41-0.01,0.65,0.08,0.58,0.43c-1.21,0-2.03,0.25-2.19,1.04C5.82,9.74,7.29,9.7,7.87,9.11L7.8,9.44h1.09l0.47-2.17
				C9.55,6.35,8.71,6.13,7.95,6.14z M8.04,8.35c-0.06,0.29-0.3,0.42-0.58,0.43c-0.24,0.01-0.44-0.2-0.29-0.45
				c0.12-0.21,0.46-0.26,0.65-0.26c0.1,0,0.18,0,0.28,0C8.07,8.17,8.05,8.25,8.04,8.35z"/>
			<polygon class="st2" points="9.83,6.2 10.92,6.2 11.1,8.13 12.16,6.2 13.29,6.2 10.7,10.81 9.48,10.81 10.28,9.46 9.83,6.2 
				9.83,6.2 			"/>
			<path class="st2" d="M5.24,5.3H3.2L2.3,9.44H3.5l0.29-1.37h0.85c0.82,0,1.5-0.5,1.68-1.36C6.53,5.74,5.84,5.3,5.24,5.3z
				 M5.2,6.71C5.13,7.02,4.83,7.27,4.52,7.27H3.96l0.26-1.13H4.8C5.09,6.14,5.29,6.39,5.2,6.71z"/>
		</g>
		<g>
			<path class="st3" d="M22.29,5.82V5.33h-0.18V5.26h0.44v0.07h-0.18v0.49H22.29z"/>
			<path class="st3" d="M22.62,5.82V5.26h0.11l0.13,0.39c0.01,0.04,0.02,0.06,0.03,0.08c0.01-0.02,0.02-0.05,0.03-0.09l0.13-0.39
				h0.1v0.56h-0.07V5.35l-0.16,0.46h-0.07l-0.16-0.47v0.47H22.62z"/>
		</g>
	</g>
</g>
</svg>
