<?xml version="1.0" encoding="utf-8"?>
<!-- Generator: Adobe Illustrator 27.1.1, SVG Export Plug-In . SVG Version: 6.00 Build 0)  -->
<svg version="1.1" id="Layer_1" xmlns="http://www.w3.org/2000/svg" xmlns:xlink="http://www.w3.org/1999/xlink" x="0px" y="0px"
	 viewBox="0 0 25 15.62" style="enable-background:new 0 0 25 15.62;" xml:space="preserve">
<style type="text/css">
	.st0{fill:#C7B299;}
	.st1{fill-rule:evenodd;clip-rule:evenodd;fill:#FAE02A;}
	.st2{fill:#004C96;}
</style>
<g>
	<path class="st0" d="M25,14.79c0,0.46-0.37,0.83-0.83,0.83H0.83C0.37,15.62,0,15.25,0,14.79V0.83C0,0.37,0.37,0,0.83,0h23.33
		C24.62,0,25,0.37,25,0.83V14.79z"/>
	<g>
		<rect x="1.85" y="6.48" class="st1" width="23.15" height="6.83"/>
		<g>
			<path class="st2" d="M4.83,8.52C4.94,8.47,5.08,8.45,5.2,8.45c0.24,0,0.45,0.08,0.6,0.23C5.96,8.83,6.04,9.04,6.07,9.3
				c0.02,0.19,0,0.39-0.06,0.61c-0.05,0.22-0.12,0.4-0.23,0.56c-0.11,0.2-0.26,0.35-0.45,0.45c-0.15,0.09-0.32,0.14-0.51,0.16v-0.38
				c0.07-0.02,0.13-0.05,0.19-0.08c0.12-0.08,0.23-0.19,0.31-0.34c0.08-0.15,0.15-0.31,0.2-0.49C5.57,9.63,5.58,9.46,5.57,9.3
				C5.55,9.14,5.5,9,5.4,8.9C5.3,8.8,5.17,8.75,5.02,8.75c-0.07,0-0.13,0.01-0.19,0.03V8.52z M3.17,11.99l0.65-2.84
				c0.02-0.11,0.04-0.22,0.06-0.33C3.88,8.7,3.89,8.6,3.9,8.49h0.45L4.32,8.87C4.46,8.73,4.6,8.62,4.74,8.55
				C4.77,8.53,4.8,8.53,4.83,8.52v0.26C4.77,8.8,4.7,8.84,4.64,8.87c-0.12,0.08-0.23,0.21-0.3,0.36c-0.08,0.15-0.15,0.33-0.2,0.53
				c-0.05,0.21-0.06,0.37-0.05,0.5c0.01,0.15,0.07,0.26,0.16,0.36c0.09,0.08,0.22,0.13,0.37,0.13c0.08,0,0.15-0.01,0.22-0.03v0.38
				c-0.03,0-0.06,0-0.08,0c-0.18,0-0.32-0.04-0.45-0.1c-0.12-0.07-0.23-0.17-0.33-0.3l-0.3,1.3H3.17z"/>
			<path class="st2" d="M16.87,8.89c-0.06,0-0.1,0.01-0.16,0.02V8.54c0.03-0.01,0.05-0.02,0.07-0.03c0.13-0.07,0.28-0.09,0.44-0.09
				c0.24,0,0.44,0.08,0.58,0.22s0.23,0.35,0.24,0.62c0.05,0.51-0.05,0.94-0.29,1.29c-0.23,0.36-0.55,0.53-0.95,0.53
				c-0.03,0-0.07-0.01-0.09-0.01v-0.49c0.06-0.01,0.11-0.04,0.16-0.08c0.08-0.07,0.15-0.16,0.22-0.29c0.07-0.14,0.12-0.3,0.16-0.47
				c0.04-0.17,0.05-0.31,0.04-0.43C17.28,9.17,17.23,9.07,17.16,9C17.09,8.93,16.99,8.89,16.87,8.89z M16.71,8.91
				c-0.15,0.05-0.28,0.17-0.38,0.35c-0.15,0.25-0.21,0.53-0.18,0.84c0.02,0.16,0.06,0.28,0.14,0.37c0.08,0.08,0.18,0.13,0.31,0.13
				c0.04,0,0.08-0.01,0.11-0.02v0.49c-0.14-0.01-0.26-0.05-0.37-0.1c-0.13-0.07-0.23-0.18-0.31-0.32l-0.3,1.34h-0.78l0.6-2.72
				c0.08-0.35,0.12-0.61,0.14-0.78h0.7L16.38,8.8c0.11-0.1,0.22-0.19,0.33-0.25V8.91z"/>
			<path class="st2" d="M19.8,9.82c-0.02-0.01-0.04-0.01-0.06-0.01c-0.03,0-0.05,0-0.08,0c-0.12,0-0.23,0.01-0.33,0.04V9.44
				c0.1-0.01,0.23-0.01,0.35-0.01c0.06,0,0.1,0,0.13,0s0.06,0,0.08,0c0.02-0.09,0.04-0.16,0.04-0.22c0.01-0.05,0.01-0.08,0.01-0.12
				c-0.01-0.08-0.04-0.13-0.09-0.17c-0.05-0.04-0.12-0.06-0.22-0.06c-0.11,0-0.2,0.03-0.25,0.08c-0.02,0.02-0.04,0.03-0.05,0.06
				V8.47c0.09-0.02,0.2-0.02,0.3-0.02c0.33,0,0.57,0.05,0.75,0.16c0.17,0.11,0.26,0.27,0.28,0.49c0.01,0.07,0.01,0.13,0,0.21
				c-0.01,0.07-0.03,0.15-0.05,0.23l-0.2,0.86c-0.03,0.1-0.04,0.21-0.06,0.32c-0.01,0.11-0.01,0.22-0.01,0.33h-0.71
				c0-0.06,0-0.11,0-0.18c0-0.07,0.01-0.12,0.01-0.19c-0.09,0.13-0.21,0.23-0.32,0.29v-0.39c0.08-0.04,0.15-0.09,0.23-0.18
				C19.68,10.25,19.76,10.06,19.8,9.82z M19.33,9.85c-0.1,0.03-0.19,0.07-0.26,0.12c-0.16,0.1-0.23,0.23-0.21,0.38
				c0,0.08,0.03,0.15,0.08,0.2c0.05,0.05,0.11,0.07,0.2,0.07c0.07,0,0.13-0.01,0.19-0.04v0.39l-0.02,0.01
				c-0.12,0.07-0.25,0.1-0.41,0.1c-0.23,0-0.4-0.07-0.54-0.19c-0.14-0.12-0.22-0.28-0.23-0.49c-0.03-0.32,0.09-0.56,0.36-0.73
				c0.21-0.13,0.49-0.22,0.85-0.24V9.85L19.33,9.85z M19.33,8.47v0.53c-0.04,0.05-0.06,0.11-0.08,0.19h-0.74
				c0.02-0.23,0.13-0.41,0.32-0.54C18.97,8.55,19.13,8.5,19.33,8.47z"/>
			<polygon class="st2" points="20.8,11.98 21.42,11.04 20.96,8.47 21.73,8.47 21.95,10.23 22.94,8.47 23.68,8.47 22.08,11.14 
				21.62,11.98 			"/>
			<path class="st2" d="M7.54,8.73c-0.07,0-0.12,0.01-0.19,0.03V8.43C7.43,8.42,7.52,8.42,7.6,8.42c0.3,0,0.53,0.08,0.71,0.22
				C8.5,8.79,8.6,8.99,8.62,9.26c0.02,0.21,0,0.43-0.07,0.67c-0.06,0.23-0.14,0.44-0.25,0.61c-0.13,0.2-0.28,0.34-0.47,0.42
				c-0.13,0.07-0.29,0.1-0.48,0.12v-0.33c0.08-0.02,0.15-0.05,0.21-0.08c0.11-0.07,0.21-0.17,0.29-0.31
				c0.09-0.16,0.16-0.34,0.21-0.53c0.05-0.21,0.07-0.38,0.06-0.53C8.1,9.1,8.04,8.96,7.95,8.87C7.85,8.78,7.72,8.73,7.54,8.73z
				 M7.36,8.76C7.29,8.78,7.22,8.81,7.15,8.84c-0.11,0.08-0.22,0.2-0.3,0.35C6.77,9.33,6.7,9.5,6.65,9.71
				c-0.05,0.21-0.06,0.38-0.05,0.53c0.01,0.17,0.08,0.29,0.17,0.38c0.1,0.09,0.23,0.14,0.4,0.14c0.07,0,0.12-0.01,0.18-0.02v0.33
				c-0.07,0-0.14,0.01-0.22,0.01c-0.3,0-0.54-0.08-0.72-0.23c-0.19-0.15-0.29-0.37-0.31-0.64c-0.02-0.23,0-0.45,0.08-0.69
				c0.07-0.24,0.16-0.45,0.29-0.63C6.6,8.73,6.75,8.62,6.93,8.53c0.12-0.05,0.27-0.08,0.42-0.1V8.76z"/>
			<path class="st2" d="M9.14,10.21c-0.02,0.05-0.03,0.08-0.03,0.12c-0.01,0.04-0.01,0.07,0,0.09c0.01,0.1,0.05,0.18,0.12,0.23
				c0.08,0.06,0.18,0.08,0.33,0.08c0.2,0,0.35-0.04,0.46-0.11c0.11-0.08,0.16-0.19,0.15-0.31c0-0.08-0.04-0.14-0.1-0.2
				c-0.07-0.06-0.2-0.13-0.4-0.23C9.4,9.75,9.21,9.64,9.11,9.54C9,9.45,8.94,9.32,8.93,9.19C8.91,8.97,9,8.79,9.18,8.64
				C9.36,8.5,9.62,8.42,9.94,8.42c0.29,0,0.51,0.05,0.65,0.13c0.15,0.08,0.23,0.21,0.24,0.38c0,0.03,0,0.06,0,0.09
				c0,0.03,0,0.08-0.01,0.14h-0.46c0-0.03,0-0.06,0-0.08c0-0.02,0-0.05,0-0.07c-0.01-0.09-0.05-0.17-0.12-0.22
				c-0.07-0.05-0.17-0.08-0.31-0.08c-0.16,0-0.28,0.04-0.37,0.1C9.47,8.91,9.43,9,9.44,9.12c0.01,0.07,0.04,0.13,0.1,0.18
				c0.06,0.06,0.2,0.13,0.41,0.23c0.3,0.14,0.51,0.26,0.59,0.36c0.08,0.09,0.14,0.22,0.15,0.36c0.02,0.23-0.08,0.44-0.3,0.6
				c-0.22,0.16-0.51,0.24-0.86,0.24c-0.28,0-0.5-0.06-0.67-0.15c-0.16-0.1-0.24-0.24-0.26-0.43c-0.01-0.04-0.01-0.08,0-0.14
				c0.01-0.05,0.02-0.1,0.03-0.16H9.14z"/>
			<path class="st2" d="M12.23,11.05c-0.09,0.01-0.18,0.02-0.25,0.03c-0.08,0-0.15,0.01-0.22,0.01c-0.19,0-0.33-0.03-0.41-0.09
				c-0.09-0.06-0.14-0.16-0.15-0.3c-0.01-0.05,0-0.13,0.01-0.23c0.01-0.11,0.04-0.23,0.06-0.35l0.29-1.28h-0.47l0.08-0.33h0.46
				l0.13-0.58l0.5-0.12l-0.15,0.7h0.55l-0.08,0.33h-0.55l-0.28,1.33c-0.03,0.1-0.05,0.18-0.05,0.23c-0.01,0.06-0.02,0.09-0.01,0.12
				c0,0.08,0.03,0.12,0.08,0.15c0.05,0.04,0.13,0.06,0.24,0.06c0.04,0,0.09-0.01,0.15-0.02c0.05,0,0.1-0.02,0.15-0.03L12.23,11.05z"
				/>
			<path class="st2" d="M13.85,9.47h0.64c0.01-0.08,0.02-0.15,0.02-0.2c0.01-0.05,0.01-0.08,0-0.12c-0.01-0.14-0.07-0.24-0.16-0.32
				c-0.1-0.08-0.23-0.12-0.4-0.12c-0.03,0-0.07,0.01-0.09,0.01V8.41c0.04,0,0.07,0,0.1,0c0.33,0,0.58,0.07,0.75,0.19
				c0.16,0.12,0.26,0.32,0.28,0.59c0.01,0.09,0.01,0.2,0,0.3c0,0.1-0.02,0.22-0.05,0.33h-1.09V9.47L13.85,9.47z M13.85,11.07v-0.38
				c0.06-0.02,0.11-0.05,0.16-0.08c0.11-0.08,0.2-0.19,0.24-0.33h0.55c-0.07,0.25-0.21,0.45-0.42,0.59
				C14.24,10.97,14.06,11.04,13.85,11.07z M13.19,9.47h0.66v0.35h-0.74c-0.03,0.08-0.04,0.14-0.05,0.22
				c-0.01,0.07-0.01,0.13-0.01,0.19c0.02,0.16,0.08,0.28,0.17,0.37c0.1,0.08,0.23,0.13,0.41,0.13c0.08,0,0.15-0.01,0.22-0.04v0.38
				c-0.08,0.01-0.18,0.02-0.27,0.02c-0.3,0-0.53-0.08-0.71-0.22c-0.17-0.14-0.27-0.35-0.29-0.61c-0.02-0.2,0-0.42,0.07-0.68
				c0.06-0.24,0.15-0.46,0.25-0.64c0.11-0.17,0.26-0.31,0.44-0.39c0.15-0.08,0.32-0.12,0.52-0.14v0.31
				c-0.15,0.02-0.28,0.08-0.38,0.19C13.33,9.03,13.24,9.22,13.19,9.47z"/>
		</g>
	</g>
</g>
</svg>
