<?xml version="1.0" encoding="utf-8"?>
<!-- Generator: Adobe Illustrator 27.1.1, SVG Export Plug-In . SVG Version: 6.00 Build 0)  -->
<svg version="1.1" id="Livello_1" xmlns="http://www.w3.org/2000/svg" xmlns:xlink="http://www.w3.org/1999/xlink" x="0px" y="0px"
	 viewBox="0 0 22.68 22.68" style="enable-background:new 0 0 22.68 22.68;" xml:space="preserve">
<g>
	<path d="M11.3,18.83c-1.4,0-2.8,0.01-4.21,0c-1.64-0.01-2.54-1.16-2.18-2.76c0.53-2.35,2.57-4.03,4.97-4.06
		c1.26-0.01,2.53-0.07,3.76,0.11c2.16,0.31,3.88,2.2,4.17,4.37c0.16,1.2-0.77,2.31-2.03,2.33C14.3,18.85,12.8,18.83,11.3,18.83
		C11.3,18.83,11.3,18.83,11.3,18.83z M11.32,18.26c1.47,0,2.93,0.01,4.4,0c1-0.01,1.69-0.81,1.54-1.76
		c-0.28-1.86-1.76-3.51-3.63-3.79c-1.22-0.18-2.48-0.13-3.71-0.12c-2.16,0.02-3.93,1.49-4.43,3.6c-0.29,1.25,0.35,2.07,1.62,2.08
		C8.51,18.26,9.91,18.26,11.32,18.26z"/>
	<path d="M11.53,11.08c-2.09,0.01-3.79-1.62-3.79-3.62c0-1.97,1.69-3.6,3.75-3.62c2.07-0.02,3.8,1.62,3.82,3.6
		C15.32,9.43,13.62,11.07,11.53,11.08z M11.55,4.42c-1.79,0-3.26,1.38-3.26,3.06c0,1.67,1.46,3.03,3.23,3.03
		c1.77-0.01,3.2-1.38,3.2-3.06C14.72,5.78,13.3,4.43,11.55,4.42z"/>
</g>
</svg>
