<?xml version="1.0" encoding="utf-8"?>
<!-- Generator: Adobe Illustrator 27.1.1, SVG Export Plug-In . SVG Version: 6.00 Build 0)  -->
<svg version="1.1" id="Layer_1" xmlns="http://www.w3.org/2000/svg" xmlns:xlink="http://www.w3.org/1999/xlink" x="0px" y="0px"
	 viewBox="0 0 25 15.62" style="enable-background:new 0 0 25 15.62;" xml:space="preserve">
<style type="text/css">
	.st0{fill-rule:evenodd;clip-rule:evenodd;fill:#0C0C17;}
	.st1{fill:#C7B299;}
	.st2{fill-rule:evenodd;clip-rule:evenodd;fill:#FFA92C;}
	.st3{fill-rule:evenodd;clip-rule:evenodd;fill:#FFFFFF;}
</style>
<g>
	<g>
		<path class="st0" d="M8.9,9.19c1.89-0.81,4.53-1.54,8.04-0.81l0.04-0.89c-3.7-0.4-6.35,0.77-8.08,1.61V9.19L8.9,9.19z"/>
		<polygon class="st0" points="5.5,9.84 7.28,9.84 7.28,10.38 6.17,10.38 6.16,10.87 7.26,10.87 7.26,11.38 6.16,11.38 6.16,11.88 
			7.25,11.88 7.25,12.41 5.5,12.41 5.5,9.84 		"/>
		<polygon class="st0" points="7.72,9.62 8.37,9.62 8.37,12.41 7.72,12.41 7.72,9.62 		"/>
		<path class="st0" d="M10.6,12.2c-0.22,0.19-0.55,0.28-0.85,0.28c-0.68,0-0.99-0.48-0.99-0.96c0-0.57,0.42-1.05,1.01-1.05
			c0.71,0,0.94,0.51,0.94,1.15H9.4c0,0.15,0.09,0.39,0.45,0.39c0.23,0,0.35-0.07,0.53-0.19L10.6,12.2L10.6,12.2z M10.12,11.24
			c0-0.19-0.09-0.37-0.31-0.37c-0.2,0-0.36,0.18-0.4,0.37H10.12L10.12,11.24z"/>
		<path class="st0" d="M12.66,12.29c-0.18,0.11-0.47,0.19-0.69,0.19c-0.6,0-1.02-0.34-1.02-0.96c0-0.63,0.42-1.05,1.06-1.05
			c0.22,0,0.49,0.07,0.64,0.16l-0.21,0.42c-0.1-0.04-0.2-0.07-0.3-0.07c-0.32,0-0.54,0.19-0.54,0.5c0,0.27,0.21,0.48,0.48,0.48
			c0.12,0,0.25-0.06,0.35-0.11L12.66,12.29L12.66,12.29z"/>
		<path class="st0" d="M12.9,10.54h0.29l0-0.64h0.63l-0.01,0.64h0.53l-0.01,0.47h-0.53c0,0.26-0.02,0.54-0.02,0.7
			c0,0.16,0.04,0.24,0.19,0.24c0.09,0,0.16-0.04,0.24-0.09l0.14,0.44c-0.19,0.12-0.42,0.19-0.64,0.19c-0.52,0-0.55-0.33-0.55-0.76
			c0-0.23,0.02-0.46,0.02-0.71h-0.28L12.9,10.54L12.9,10.54z"/>
		<path class="st0" d="M14.67,10.54h0.65v0.26h0.01c0.1-0.16,0.22-0.32,0.48-0.32c0.07,0,0.15,0.01,0.21,0.02l-0.09,0.64
			c-0.06-0.02-0.13-0.04-0.23-0.04c-0.22,0-0.38,0.18-0.38,0.22l-0.01,1.08h-0.65L14.67,10.54L14.67,10.54z"/>
		<path class="st0" d="M17.18,10.47c0.69,0,1.05,0.44,1.05,1c0,0.57-0.36,1-1.05,1c-0.69,0-1.05-0.44-1.05-1
			C16.13,10.91,16.49,10.47,17.18,10.47L17.18,10.47z M17.18,11.99c0.31,0,0.4-0.27,0.4-0.51c0-0.25-0.09-0.51-0.4-0.51
			c-0.31,0-0.4,0.27-0.4,0.51C16.78,11.72,16.87,11.99,17.18,11.99L17.18,11.99z"/>
		<path class="st0" d="M18.58,10.54h0.65v0.2c0.15-0.15,0.38-0.27,0.61-0.27c0.4,0,0.61,0.22,0.61,0.73c0,0.38,0,0.8-0.01,1.21H19.8
			c0-0.36,0.01-0.73,0.01-1.11c0-0.15-0.04-0.27-0.23-0.27c-0.1,0-0.25,0.09-0.34,0.17l0,1.21h-0.66L18.58,10.54L18.58,10.54z"/>
		<polygon class="st0" points="10.82,6.68 11.64,3.98 12.37,3.98 11.55,6.68 10.82,6.68 		"/>
		<path class="st0" d="M10.5,3.98L9.84,5.12c-0.17,0.3-0.26,0.45-0.31,0.64H9.52c0.01-0.24-0.02-0.53-0.03-0.7L9.42,3.98H8.19
			L8.18,4.05c0.32,0,0.5,0.16,0.55,0.48l0.24,2.14h0.76l1.53-2.7H10.5L10.5,3.98z"/>
		<path class="st0" d="M16.17,6.68l-0.02-0.4l-0.91,0l-0.19,0.4h-0.79l1.44-2.69h0.97l0.24,2.69H16.17L16.17,6.68z M16.09,5.09
			c-0.01-0.2-0.01-0.47,0-0.63h-0.01c-0.04,0.13-0.24,0.54-0.32,0.73l-0.27,0.59h0.64L16.09,5.09L16.09,5.09z"/>
		<path class="st0" d="M13.13,6.75c-0.51,0-0.86-0.16-1.1-0.31l0.35-0.53c0.22,0.12,0.39,0.26,0.79,0.26c0.13,0,0.25-0.03,0.32-0.15
			c0.1-0.18-0.02-0.27-0.31-0.43L13.04,5.5c-0.42-0.29-0.61-0.56-0.41-1.04c0.13-0.31,0.46-0.54,1.02-0.54
			c0.38,0,0.74,0.17,0.95,0.33l-0.4,0.47c-0.2-0.16-0.37-0.25-0.57-0.25c-0.15,0-0.27,0.06-0.31,0.14C13.25,4.76,13.35,4.86,13.57,5
			l0.17,0.11c0.51,0.32,0.64,0.66,0.51,0.98C14.02,6.63,13.59,6.75,13.13,6.75L13.13,6.75z"/>
	</g>
	<path class="st1" d="M25,14.72c0,0.46-0.37,0.83-0.83,0.83H0.89c-0.46,0-0.83-0.37-0.83-0.83V0.8c0-0.46,0.37-0.83,0.83-0.83h23.27
		C24.63-0.03,25,0.34,25,0.8V14.72z"/>
	<g>
		<path class="st2" d="M8.46,8.74C10.35,7.94,13,7.2,16.5,7.94l0.04-0.89c-3.7-0.4-6.35,0.77-8.08,1.61V8.74L8.46,8.74z"/>
		<polygon class="st3" points="5.05,9.4 6.83,9.4 6.83,9.93 5.73,9.93 5.72,10.43 6.82,10.43 6.82,10.94 5.72,10.94 5.72,11.44 
			6.81,11.44 6.81,11.97 5.06,11.97 5.05,9.4 		"/>
		<polygon class="st3" points="7.28,9.18 7.93,9.18 7.93,11.97 7.28,11.97 7.28,9.18 		"/>
		<path class="st3" d="M10.15,11.76c-0.22,0.19-0.55,0.28-0.85,0.28c-0.68,0-0.99-0.48-0.99-0.96c0-0.57,0.42-1.05,1.01-1.05
			c0.71,0,0.94,0.51,0.94,1.15h-1.3c0,0.15,0.09,0.39,0.45,0.39c0.23,0,0.35-0.07,0.53-0.19L10.15,11.76L10.15,11.76z M9.68,10.8
			c0-0.19-0.09-0.37-0.31-0.37c-0.2,0-0.36,0.18-0.4,0.37H9.68L9.68,10.8z"/>
		<path class="st3" d="M12.22,11.85c-0.18,0.11-0.47,0.19-0.69,0.19c-0.6,0-1.02-0.34-1.02-0.96c0-0.63,0.42-1.05,1.06-1.05
			c0.22,0,0.49,0.07,0.64,0.16L12,10.62c-0.1-0.04-0.2-0.07-0.3-0.07c-0.32,0-0.54,0.19-0.54,0.5c0,0.27,0.21,0.48,0.48,0.48
			c0.12,0,0.25-0.06,0.35-0.11L12.22,11.85L12.22,11.85z"/>
		<path class="st3" d="M12.46,10.1h0.29l0-0.64h0.63l-0.01,0.64h0.53l-0.01,0.47h-0.53c0,0.26-0.02,0.54-0.02,0.7
			c0,0.16,0.04,0.24,0.19,0.24c0.09,0,0.16-0.04,0.24-0.09l0.14,0.44c-0.19,0.12-0.42,0.19-0.64,0.19c-0.52,0-0.55-0.33-0.55-0.76
			c0-0.23,0.02-0.46,0.02-0.71h-0.28L12.46,10.1L12.46,10.1z"/>
		<path class="st3" d="M14.22,10.1h0.65v0.26h0.01c0.1-0.16,0.22-0.32,0.48-0.32c0.07,0,0.15,0.01,0.21,0.02l-0.09,0.64
			c-0.06-0.02-0.13-0.04-0.23-0.04c-0.22,0-0.38,0.18-0.38,0.22l-0.01,1.08h-0.65L14.22,10.1L14.22,10.1z"/>
		<path class="st3" d="M16.74,10.03c0.69,0,1.05,0.44,1.05,1c0,0.57-0.36,1-1.05,1c-0.69,0-1.05-0.44-1.05-1
			C15.69,10.47,16.05,10.03,16.74,10.03L16.74,10.03z M16.74,11.55c0.31,0,0.4-0.27,0.4-0.51c0-0.25-0.09-0.51-0.4-0.51
			c-0.31,0-0.4,0.27-0.4,0.51C16.34,11.28,16.43,11.55,16.74,11.55L16.74,11.55z"/>
		<path class="st3" d="M18.14,10.1h0.65v0.2c0.15-0.15,0.38-0.27,0.61-0.27c0.4,0,0.61,0.22,0.61,0.73c0,0.38,0,0.8-0.01,1.21h-0.65
			c0-0.36,0.01-0.73,0.01-1.11c0-0.15-0.04-0.27-0.23-0.27c-0.1,0-0.25,0.09-0.34,0.17l0,1.21h-0.66L18.14,10.1L18.14,10.1z"/>
		<polygon class="st3" points="10.38,6.24 11.2,3.54 11.93,3.54 11.11,6.24 10.38,6.24 		"/>
		<path class="st3" d="M10.05,3.54L9.4,4.68c-0.17,0.3-0.26,0.45-0.31,0.64H9.07c0.01-0.24-0.02-0.53-0.03-0.7L8.98,3.54H7.75
			L7.74,3.61c0.32,0,0.5,0.16,0.55,0.48l0.24,2.14h0.76l1.53-2.7H10.05L10.05,3.54z"/>
		<path class="st3" d="M15.73,6.24l-0.02-0.4l-0.91,0l-0.19,0.4h-0.79l1.44-2.69h0.97l0.24,2.69H15.73L15.73,6.24z M15.64,4.64
			c-0.01-0.2-0.01-0.47,0-0.63h-0.01c-0.04,0.13-0.24,0.54-0.32,0.73l-0.27,0.59h0.64L15.64,4.64L15.64,4.64z"/>
		<path class="st3" d="M12.69,6.31c-0.51,0-0.86-0.16-1.1-0.31l0.35-0.53c0.22,0.12,0.39,0.26,0.79,0.26c0.13,0,0.25-0.03,0.32-0.15
			c0.1-0.18-0.02-0.27-0.31-0.43L12.6,5.06c-0.42-0.29-0.61-0.56-0.41-1.04c0.13-0.31,0.46-0.54,1.02-0.54
			c0.38,0,0.74,0.17,0.95,0.33l-0.4,0.47c-0.2-0.16-0.37-0.25-0.57-0.25c-0.15,0-0.27,0.06-0.31,0.14
			c-0.08,0.15,0.02,0.25,0.25,0.39l0.17,0.11c0.51,0.32,0.64,0.66,0.51,0.98C13.58,6.19,13.15,6.31,12.69,6.31L12.69,6.31z"/>
	</g>
</g>
</svg>
