<?xml version="1.0" encoding="utf-8"?>
<!-- Generator: Adobe Illustrator 27.1.1, SVG Export Plug-In . SVG Version: 6.00 Build 0)  -->
<svg version="1.1" id="Layer_1" xmlns="http://www.w3.org/2000/svg" xmlns:xlink="http://www.w3.org/1999/xlink" x="0px" y="0px"
	 viewBox="0 0 25 25" style="enable-background:new 0 0 25 25;" xml:space="preserve">
<style type="text/css">
	.st0{fill:#C7B299;}
	.st1{fill-rule:evenodd;clip-rule:evenodd;fill:#C7B299;}
</style>
<g>
	<g>
		<path class="st0" d="M12.5,0.61c6.56,0,11.89,5.32,11.89,11.89S19.06,24.39,12.5,24.39c-6.57,0-11.88-5.32-11.88-11.89
			S5.93,0.61,12.5,0.61L12.5,0.61z M12.5,0C5.61,0,0,5.61,0,12.5C0,19.39,5.61,25,12.5,25C19.39,25,25,19.39,25,12.5
			C25,5.61,19.39,0,12.5,0L12.5,0z"/>
	</g>
	<g>
		<path class="st1" d="M19.55,10.79c-0.79-3.29-3.63-5.53-7.05-5.58c-0.45,0.02-0.94,0.06-1.38,0.14c-4.8,0.97-7.27,6.27-4.95,10.53
			c0.08,0.12,0.08,0.23,0.07,0.36c-0.34,1.11-0.65,2.24-0.95,3.36c-0.05,0.19-0.05,0.19,0.14,0.14c1.17-0.32,2.33-0.62,3.5-0.91
			c0.1-0.03,0.17-0.03,0.26,0.01c1.5,0.76,3.09,0.98,4.75,0.67C17.89,18.76,20.49,14.72,19.55,10.79z M13.51,18.37
			c-0.35,0.06-0.67,0.09-0.83,0.07c-1.28,0-2.3-0.29-3.26-0.84c-0.14-0.08-0.24-0.11-0.37-0.06c-0.65,0.16-1.29,0.33-1.94,0.5
			c-0.13,0.04-0.15,0.01-0.12-0.12c0.17-0.6,0.33-1.21,0.52-1.83c0.04-0.17,0.03-0.3-0.07-0.43c-1.31-2.14-1.25-4.76,0.21-6.74
			c1.53-2.04,3.62-2.89,6.11-2.35c2.46,0.52,4.03,2.11,4.59,4.56C19.15,14.49,16.89,17.82,13.51,18.37z"/>
		<path class="st1" d="M14.39,15.88c-0.25,0.03-0.51-0.02-0.75-0.09c-1.65-0.49-2.91-1.5-3.91-2.88c-0.37-0.51-0.73-1.06-0.84-1.71
			c-0.15-0.75,0.08-1.42,0.65-1.93c0.19-0.18,0.74-0.27,0.96-0.14c0.07,0.06,0.11,0.12,0.16,0.19c0.21,0.52,0.42,0.99,0.63,1.48
			c0.03,0.11,0.02,0.21-0.03,0.31c-0.11,0.23-0.28,0.4-0.44,0.6c-0.14,0.12-0.14,0.25-0.04,0.39c0.59,0.99,1.39,1.71,2.47,2.12
			c0.16,0.06,0.27,0.04,0.37-0.08c0.19-0.22,0.37-0.45,0.54-0.68c0.1-0.14,0.25-0.17,0.4-0.09c0.35,0.15,0.7,0.32,1.04,0.48
			c0.09,0.05,0.16,0.08,0.24,0.12c0.36,0.18,0.36,0.2,0.32,0.58c-0.05,0.75-0.63,1.14-1.29,1.32
			C14.69,15.91,14.55,15.91,14.39,15.88z"/>
	</g>
</g>
</svg>
